<?xml version="1.0" encoding="UTF-8"?><svg version="1.1" xmlns="http://www.w3.org/2000/svg" xmlns:xlink="http://www.w3.org/1999/xlink" viewBox="0 0 1200 800" width="1200" height="800" x="0px" y="0px">
              
              <!-- ITEM 0 -->
<g>
    <defs>
        
        <clipPath id="clip-path-id-viewbox-item-0">
            <rect x="0.0" y="0.0" width="800.0" height="600.0"/>
        </clipPath>
    </defs>
    <g transform="translate(174.0 61.0) rotate(0.0 438.0 328.5) scale(1.095 1.095)">
        <g clip-path="url(#clip-path-id-viewbox-item-0)" transform="translate(-0.0 -0.0)">

<g opacity="0.3">
	<path fill="#C4ECFE" d="M750.814,2.3v595.331H49.191V2.3H750.814 M753.109,0H46.891v599.926h706.218V0z"/>
	<rect x="217.727" fill="#C4ECFE" width="2.147" height="599.926"/>
	<rect x="307.587" fill="#C4ECFE" width="2.147" height="599.926"/>
	<rect x="217.727" fill="#C4ECFE" width="2.147" height="599.926"/>
	<rect x="127.868" fill="#C4ECFE" width="2.147" height="599.926"/>
	<rect x="397.446" fill="#C4ECFE" width="2.147" height="599.926"/>
	<rect x="487.306" fill="#C4ECFE" width="2.147" height="599.926"/>
	<rect x="576.055" fill="#C4ECFE" width="2.147" height="599.926"/>
	<rect x="664.804" fill="#C4ECFE" width="2.147" height="599.926"/>
</g>

        </g>
    </g>
</g>

<!-- ITEM 1 -->
<g>
    <defs>
        
        <clipPath id="clip-path-id-viewbox-item-1">
            <rect x="0.0" y="0.0" width="358.371" height="463.756"/>
        </clipPath>
    </defs>
    <g transform="translate(688.0 320.0) rotate(0.0 154.5 200.0) scale(0.8622349464660924 0.8625225334011851)">
        <g clip-path="url(#clip-path-id-viewbox-item-1)" transform="translate(-0.0 -0.0)">
<defs><linearGradient id="linear-gradient-i1" x1="-2063.321" y1="-765.567" x2="-2063.321" y2="-422.991" gradientTransform="matrix(-1, 0, 0, 1, -1884.395, 792)" gradientUnits="userSpaceOnUse"><stop offset="0" stop-color="#c0ddfc"/><stop offset="0.996" stop-color="#fff"/></linearGradient><linearGradient id="linear-gradient-2-i1" x1="-1595.748" y1="-424.495" x2="-1595.748" y2="-332.104" gradientTransform="matrix(-1, 0, 0, 1, -1341.842, 792)" gradientUnits="userSpaceOnUse"><stop offset="0" stop-color="#ffd8a1"/><stop offset="0.996" stop-color="#fff"/></linearGradient></defs><title>object_20</title><g id="Layer_2-i1" data-name="Layer 2"><g id="Layer_1-2-i1" data-name="Layer 1"><path d="M357.853,19.843V348.226A114.491,114.491,0,0,1,242.027,462.72L0,463.756c60.022-34.933,67.289-181.991,136.785-207.895s46.478-136.252,102.652-146.244,66.461-61.5,75.194-88.146C323.882-6.579,357.853-7.171,357.853,19.843Z" fill="url(#linear-gradient-i1)"/><path d="M149.441,463.756c46.182,0,67.275-67.794,121.746-61.207,16.356,2,34.563-31.528,42.038-44.11,12.36-20.945,45.146-12.507,45.146,11.694v93.623Z" fill="url(#linear-gradient-2-i1)"/></g></g>
        </g>
    </g>
</g>

<!-- ITEM 2 -->
<g>
    <defs>
        
        <clipPath id="clip-path-id-viewbox-item-2">
            <rect x="0.0" y="0.0" width="182.035" height="134.674"/>
        </clipPath>
    </defs>
    <g transform="translate(631.0 404.0) rotate(0.0 -209.5 155.5) scale(-2.301755156975307 2.30928018771255)">
        <g clip-path="url(#clip-path-id-viewbox-item-2)" transform="translate(-0.0 -0.0)">
<defs><linearGradient id="linear-gradient-i2" x1="-2865.438" y1="-2421.859" x2="-2865.438" y2="-2527.974" gradientTransform="translate(-2774.421 -2397.706) rotate(180)" gradientUnits="userSpaceOnUse"><stop offset="0" stop-color="#c0ddfc"/><stop offset="0.19" stop-color="#d3e7fd"/><stop offset="0.49" stop-color="#ebf4fe"/><stop offset="0.77" stop-color="#fafcff"/><stop offset="1" stop-color="#fff"/></linearGradient></defs><title>object_18</title><g id="Layer_2-i2" data-name="Layer 2"><g id="Layer_1-2-i2" data-name="Layer 1"><path d="M0,134.674c51.849,0,50.213-78.541,95.21-88.973,18-4.193,27.817-17.487,36.1-32.009,13.908-24.135,50.724-14.317,50.724,13.5V134.674Z" fill="url(#linear-gradient-i2)"/></g></g>
        </g>
    </g>
</g>

<!-- ITEM 3 -->
<g>
    <defs>
        
        <clipPath id="clip-path-id-viewbox-item-3">
            <rect x="0.0" y="0.0" width="326.882" height="589.859"/>
        </clipPath>
    </defs>
    <g transform="translate(366.0 244.0) rotate(0.0 131.0 236.0) scale(0.8015124723906486 0.8001912321419186)">
        <g clip-path="url(#clip-path-id-viewbox-item-3)" transform="translate(-0.0 -0.0)">
<defs><linearGradient id="linear-gradient-i3" x1="219.272" y1="-238.881" x2="219.272" y2="-577.281" gradientTransform="translate(0 792)" gradientUnits="userSpaceOnUse"><stop offset="0" stop-color="#77879d"/><stop offset="0.089" stop-color="#a1978e"/><stop offset="0.188" stop-color="#c9a780"/><stop offset="0.279" stop-color="#e5b275"/><stop offset="0.358" stop-color="#f7b96f"/><stop offset="0.415" stop-color="#fdbb6d"/><stop offset="0.499" stop-color="#fdbb9f"/><stop offset="0.599" stop-color="#d1d2d1"/><stop offset="1" stop-color="#feceaa"/></linearGradient><linearGradient id="linear-gradient-2-i3" x1="97.689" y1="-238.881" x2="97.689" y2="-577.281" xlink:href="#linear-gradient-i3"/><linearGradient id="linear-gradient-3-i3" x1="162.823" y1="-238.881" x2="162.823" y2="-577.281" xlink:href="#linear-gradient-i3"/><clipPath id="clip-path-i3"><path d="M170.487,100.309l-19.765,2.517a18.734,18.734,0,0,1-20.95-16.213L126,56.78a29.919,29.919,0,0,1,25.91-33.461h0a29.917,29.917,0,0,1,33.461,25.91l3.479,27.391A21.176,21.176,0,0,1,170.487,100.309Z" fill="none"/></clipPath></defs><title>man_thinks</title><g id="Layer_2-i3" data-name="Layer 2"><g id="Layer_1-2-i3" data-name="Layer 1"><path d="M302.628,156.57,254.51,222.6a26.6,26.6,0,0,1-37.163,5.775,17.643,17.643,0,0,1-2.517-2.147l-1.628-1.555L152.795,167.23A28.484,28.484,0,1,1,192.1,126l60.407,57.446L211.2,185.589l58.927-59.074Z" fill="#ea7068"/><path d="M212.536,207.65c9.031,12.288,17.174,25.021,25.1,37.976s15.472,26.058,22.8,39.309c3.627,6.663,7.255,13.325,10.734,19.988l2.665,5.182,1.629,3.109c.518,1.037,1.11,2.073,1.554,3.183,2,4.22,3.924,8.514,5.626,12.881a140.476,140.476,0,0,1,4.664,13.251l1.037,3.332.962,3.331.962,3.331.815,3.406a216.086,216.086,0,0,1,4.663,27.39c.3,2.295.371,4.59.593,6.885.148,2.3.222,4.59.3,6.884s.074,4.59.074,6.885l-.148,6.811c-.37,7.625-.889,15.175-1.259,22.8-.518,7.625-1.036,15.176-1.554,22.8-.593,7.625-1.111,15.176-1.851,22.8l-1.037,11.4-1.11,11.4c-.37,3.775-.814,7.625-1.184,11.4s-.889,7.625-1.333,11.4l-1.406,11.4c-.223,1.924-.445,3.775-.741,5.7l-.814,5.7c-.592,3.776-1.036,7.625-1.7,11.4-.666,3.849-1.184,7.624-1.924,11.474l-55.226,2.3L221.641,482,219.79,436.62l-.962-22.653-.222-4.442-.37-4.367c-.148-1.481-.3-2.888-.519-4.368-.222-1.407-.37-2.887-.666-4.368a138.705,138.705,0,0,0-10.142-33.461c-1.184-2.665-2.517-5.256-3.849-7.847-.666-1.332-1.407-2.591-2.073-3.849l-2.739-4.812L187,326.762l-45.158-78.841Z" fill="url(#linear-gradient-i3)"/><path d="M270.056,126.441l14.731-14.806a20.561,20.561,0,0,1,31.166,26.65L302.628,156.5" fill="#fdc068"/><path d="M245.256,176.928a.95.95,0,0,1-.74-.3l-12.881-12.289a1.1,1.1,0,1,1,1.554-1.554l12.881,12.288a1.073,1.073,0,0,1,0,1.555A1.552,1.552,0,0,1,245.256,176.928Z" fill="#2b2b2b"/><path d="M215.867,203.208c-5.182-28.353-24.43-23.541-20.358-43.973s-9.4-45.6-31.24-41.678c-16.8,3.035-18.063,2.591-25.17,3.85-22.43,4.071-33.683,29.685-23.393,49.969,0,0-9.475,29.759-5.922,49.229Z" fill="#ea7068"/><path d="M166.934,118.668c3.109.148,3.331,1.184,4.294,4.145,3.035,9.106,3.479,21.32-8.81,23.171-14.657,2.221-31.092-18.433-31.092-18.433s-3.4-5.552,16.879-7.329C148.279,120.148,153.461,118,166.934,118.668Z" fill="#fff"/><path d="M195.213,232.967c.444,15.546-.074,31.018-.814,46.416q-1.222,23.1-3.48,46.194l-1.184,11.548-.3,2.888-.148,1.554-.222,1.7c-.3,2.221-.519,4.515-.889,6.736s-.666,4.516-1.036,6.737c-.444,2.221-.741,4.442-1.259,6.736l-1.48,6.663-1.629,6.589c-.592,2.22-1.184,4.367-1.777,6.588-.592,2.147-1.332,4.294-2,6.515-.667,2.146-1.407,4.293-2.147,6.44s-1.481,4.294-2.3,6.366c-3.183,8.44-6.885,16.657-10.882,24.726a259.785,259.785,0,0,1-13.325,23.319c-.3.444-.593.962-.815,1.332l-.814,1.185-1.629,2.443-3.257,4.812-6.514,9.623c-4.368,6.441-8.81,12.807-13.251,19.174-4.516,6.366-8.884,12.733-13.474,19.025l-6.81,9.476-6.885,9.4c-2.3,3.183-4.664,6.293-6.959,9.4s-4.737,6.218-7.106,9.327l-7.181,9.328c-1.184,1.555-2.369,3.109-3.627,4.664l-3.7,4.589c-2.443,3.036-4.886,6.145-7.4,9.18s-5.034,6.07-7.625,9.031L0,570.019,70.771,434.1l10.956-20.284c3.035-5.7,5.849-11.475,8.292-17.4a205.838,205.838,0,0,0,11.474-36.792c1.332-6.292,2.369-12.659,3.109-19.025.222-1.629.3-3.184.518-4.812l.148-1.185.148-1.332.222-2.887.963-11.549,7.477-92.387Z" fill="url(#linear-gradient-2-i3)"/><path d="M109.784,220.679c2.739,15.028,22.431,34.571,48.563,30.055l20.95-4.293c23.837-4.146,39.161-28.8,36.2-44.936Z" fill="url(#linear-gradient-3-i3)"/><path id="SVGID-i3" d="M170.487,100.309l-19.765,2.517a18.734,18.734,0,0,1-20.95-16.213L126,56.78a29.919,29.919,0,0,1,25.91-33.461h0a29.917,29.917,0,0,1,33.461,25.91l3.479,27.391A21.176,21.176,0,0,1,170.487,100.309Z" fill="#fdc068"/><g clip-path="url(#clip-path)"><circle cx="187.144" cy="57.742" r="3.405" fill="#2b2b2b"/></g><path d="M132.585,129.994l6.514-8.587s-13.029,2.369-18.877,10.882Z" fill="#2b2b2b"/><path d="M159.161,136.138l-26.576-6.144-4.516-56.78,31.61-4L169.9,125.922A8.879,8.879,0,0,1,159.161,136.138Z" fill="#fdc068"/><path d="M180.111,69.143a1.143,1.143,0,0,1-.74-2l2.443-1.925a1.113,1.113,0,0,0,.3-.814,1.23,1.23,0,0,0-.37-.889l-4.812-4.441a1.1,1.1,0,0,1,1.48-1.629l4.812,4.442a3.747,3.747,0,0,1,1.111,2.443,3.8,3.8,0,0,1-.963,2.517l-.074.074-2.517,2A1.033,1.033,0,0,1,180.111,69.143Z" fill="#2b2b2b"/><path d="M177.15,80.4a1.394,1.394,0,0,1-.592-.148,1.084,1.084,0,0,1-.3-1.555c1.776-2.739,3.627-4.071,5.478-4,2.443.074,3.7,2.517,3.775,2.665A1.093,1.093,0,0,1,183.59,78.4s-.814-1.406-1.924-1.48c-.963-.074-2.221,1.036-3.48,2.961A1.292,1.292,0,0,1,177.15,80.4Z" fill="#2b2b2b"/><polygon points="165.379 100.975 152.499 102.603 167.674 113.634 165.379 100.975" fill="#2b2b2b"/><circle cx="167.896" cy="60.333" r="3.405" fill="#2b2b2b"/><path d="M130.734,145.17c-.74-5.774,2.517-10.512,1.777-16.286l-28.945-17.175,22.652-28.2L95.2,52.412,41.234,98.754A26.567,26.567,0,0,0,44.047,141.1l2.147,1.407,63.96,41.53a28.476,28.476,0,0,0,38.717-7.329A72.659,72.659,0,0,1,130.734,145.17Z" fill="#ea7068"/><path d="M182.036,38.865,192.03,25.54a14.3,14.3,0,0,0-3.554-20.432h0a14.318,14.318,0,0,0-19.321,3.405h0a3.038,3.038,0,0,1-4.738.223L159.753,3.7a11.438,11.438,0,0,0-13.177-2.665h0a11.626,11.626,0,0,0-6.514,7.921,33,33,0,0,1-9.55,16.952L117.853,37.533l11.475,52.856,7.773-2.443,1.628-15.028-1.258-11.252a3.889,3.889,0,0,1,5.626-3.924l4.886,2.517,7.4-19.469Z" fill="#2b2b2b"/><path d="M136.879,73.955s10.067-12.067,7.106-19.84-12.807-1.777-12.807-1.777Z" fill="#2b2b2b"/><path d="M95.2,52.412l11.474-9.92a20.638,20.638,0,0,1,29.537,28.575l-9.994,12.511Z" fill="#fdc068"/><path d="M322.542,589.858l-88.39-.37a8.58,8.58,0,0,1-8.513-8.365l-.223-11.178,55.892.814,42.344,10.586C328.538,582.6,327.65,589.932,322.542,589.858Z" fill="#2b2b2b"/><path d="M86.687,589.858l-77.952-.37a8.581,8.581,0,0,1-8.513-8.365L0,569.945l55.891.814,31.833,10.586C92.684,582.6,91.8,589.932,86.687,589.858Z" fill="#2b2b2b"/><path d="M160.049,57.3a1.06,1.06,0,0,1-.74-.3,1.148,1.148,0,0,1-.148-1.555l6.885-8.069a1.1,1.1,0,1,1,1.7,1.407l-6.884,8.069A1.023,1.023,0,0,1,160.049,57.3Z" fill="#2b2b2b"/><path d="M187.366,52.782a.858.858,0,0,1-.74-.3l-6.515-6.366a1.1,1.1,0,0,1,1.555-1.555l6.514,6.367a1.073,1.073,0,0,1,0,1.554A1.552,1.552,0,0,1,187.366,52.782Z" fill="#2b2b2b"/><path d="M190.771,333.942h-.148a1.044,1.044,0,0,1-.888-1.258c2.665-16.064,4.071-71.882,4.071-72.474a1.111,1.111,0,1,1,2.221,0c-.074,2.3-1.332,56.558-4.071,72.77A1.249,1.249,0,0,1,190.771,333.942Z" fill="#2b2b2b"/><path d="M100.086,407.6h0a1.09,1.09,0,0,1-1.11-1.11l1.481-47.674a1.11,1.11,0,1,1,2.22,0L101.2,406.49A1.09,1.09,0,0,1,100.086,407.6Z" fill="#2b2b2b"/><path d="M110.154,183.294l16.953,12.141-18.063,17.4C109.044,212.758,108.748,204.318,110.154,183.294Z" fill="#2b2b2b"/><path d="M215.571,201.876a1.115,1.115,0,0,1-1.037-.741L195.213,151.24a1.1,1.1,0,0,1,2.073-.74l19.321,49.9a1.07,1.07,0,0,1-.666,1.406A.549.549,0,0,1,215.571,201.876Z" fill="#2b2b2b"/><path d="M109.784,221.049a1.179,1.179,0,0,1-1.11-.888,1.1,1.1,0,0,1,.888-1.259l105.787-19.173a1.089,1.089,0,0,1,.37,2.147L109.932,221.049Z" fill="#2b2b2b"/><path d="M92.239,125.626a1.06,1.06,0,0,1-.74-.3,1.147,1.147,0,0,1-.148-1.554L102.677,110.3a1.1,1.1,0,1,1,1.7,1.407L93.054,125.182A.929.929,0,0,1,92.239,125.626Z" fill="#2b2b2b"/><path d="M210.873,339.962c-14.8-19.617-14.8-35.978-17.767-56.557L190.731,333.3l7.517,13.155,2.739,4.812c.666,1.258,1.407,2.517,2.073,3.849,1.332,2.591,2.665,5.182,3.849,7.847a138.705,138.705,0,0,1,10.142,33.461c.3,1.481.444,2.961.666,4.368.223,1.48.371,2.887.519,4.368l.37,4.367.222,4.442.962,22.653.958,23.484c1.534-10.725,4.862-29.377,10.853-42.856C240.485,397.26,225.679,359.58,210.873,339.962Z" fill="#2b2b2b"/></g></g>
        </g>
    </g>
</g>

<!-- ITEM 4 -->
<g>
    <defs>
        
        <clipPath id="clip-path-id-viewbox-item-4">
            <rect x="0.0" y="0.0" width="131.563" height="168.744"/>
        </clipPath>
    </defs>
    <g transform="translate(606.0 208.0) rotate(0.0 103.0 131.5) scale(1.565789773720575 1.5585739344806333)">
        <g clip-path="url(#clip-path-id-viewbox-item-4)" transform="translate(-0.0 -0.0)">
<title> tablet</title><g id="Layer_2-i4" data-name="Layer 2"><g id="Layer_1-2-i4" data-name="Layer 1"><path d="M11.849,0H119.714a11.858,11.858,0,0,1,11.849,11.849V156.9a11.858,11.858,0,0,1-11.849,11.849H11.849A11.858,11.858,0,0,1,0,156.9V11.849A11.991,11.991,0,0,1,11.849,0Z" fill="#f9d5ff"/><rect x="7.712" y="13.483" width="116.139" height="133.401" fill="#fff"/><circle cx="65.781" cy="157.406" r="5.312" fill="#fff"/></g></g>
        </g>
    </g>
</g>

<!-- ITEM 5 -->
<g>
    <defs>
        
        <clipPath id="clip-path-id-viewbox-item-5">
            <rect x="0.0" y="0.0" width="56.0" height="55.0"/>
        </clipPath>
    </defs>
    <g transform="translate(664.0 289.0) rotate(315.3536731592461 45.5 45.0) scale(1.625 1.6363636363636365)">
        <g clip-path="url(#clip-path-id-viewbox-item-5)" transform="translate(-0.0 -0.0)">
<title>Asset 142</title><g id="Layer_2-i5" data-name="Layer 2"><g id="Layer_1-2-i5" data-name="Layer 1"><polygon points="56 15 41 15 41 0 15 0 15 15 0 15 0 40 16 40 16 55 41 55 41 40 56 40 56 15" fill="#2b2b2b"/></g></g>
        </g>
    </g>
</g>

              </svg>