<?xml version="1.0" encoding="UTF-8" standalone="no"?>
<svg
        xmlns:dc="http://purl.org/dc/elements/1.1/"
        xmlns:cc="http://creativecommons.org/ns#"
        xmlns:rdf="http://www.w3.org/1999/02/22-rdf-syntax-ns#"
        xmlns="http://www.w3.org/2000/svg"
        viewBox="0 0 4666.6665 2666.6667"
        height="2666.6667"
        width="4666.6665"
        xml:space="preserve"
        id="svg2"
        version="1.1"><metadata
     id="metadata8"><rdf:RDF><cc:Work
         rdf:about=""><dc:format>image/svg+xml</dc:format><dc:type
           rdf:resource="http://purl.org/dc/dcmitype/StillImage" /></cc:Work></rdf:RDF></metadata><defs
     id="defs6" /><g
     transform="matrix(1.3333333,0,0,-1.3333333,0,2666.6667)"
     id="g10"><g
       transform="scale(0.1)"
       id="g12"><g
         transform="scale(2.14724)"
         id="g14"><path
           id="path16"
           style="fill:#ffffff;fill-opacity:1;fill-rule:nonzero;stroke:none"
           d="M 16300,0 H 0 V 9314.29 H 16300 V 0" /></g><g
         transform="scale(2.10664)"
         id="g18"><path
           id="path20"
           style="fill:#e6f6fa;fill-opacity:1;fill-rule:nonzero;stroke:none"
           d="m 2378.06,1192.99 c -3134.936,2299.29 -1426.252,3730.92 -87.97,3997.52 1338.28,266.6 972.55,1923.55 1936.23,2801.08 626.52,570.49 2534.58,1063.55 4741.31,-222.9 C 11174.4,6482.24 13902.6,6552.9 14933.2,5880.99 16243.1,5026.97 16300,3034.87 15412.2,2097.13 14439.6,1069.71 14050.5,1103.7 14050.5,1103.7 l -11672.44,89.29" /></g><g
         transform="scale(1.06011)"
         id="g22"><path
           id="path24"
           style="fill:#ffffff;fill-opacity:1;fill-rule:nonzero;stroke:none"
           d="M 10905.3,6036.93 H 3735.91 V 16300 H 10905.3 V 6036.93" /></g><g
         transform="scale(1.06318)"
         id="g26"><path
           id="path28"
           style="fill:#63acc2;fill-opacity:1;fill-rule:nonzero;stroke:none"
           d="M 3772.16,6066.54 H 10826.8 V 16205.9 H 3772.16 Z m 7148.74,-94.05 H 3678.1 V 16300 h 7242.8 V 5972.49" /></g><path
         id="path30"
         style="fill:#bbd9ff;fill-opacity:1;fill-rule:nonzero;stroke:none"
         d="M 10793.7,14371.4 H 6117.56 c -50,0 -90.92,40.9 -90.92,90.9 v 12.2 c 0,50 40.92,90.9 90.92,90.9 h 4676.14 c 50,0 90.9,-40.9 90.9,-90.9 v -12.2 c 0,-50 -40.9,-90.9 -90.9,-90.9" /><path
         id="path32"
         style="fill:#bbd9ff;fill-opacity:1;fill-rule:nonzero;stroke:none"
         d="M 10793.7,14023.8 H 6117.56 c -50,0 -90.92,40.9 -90.92,90.9 v 12.2 c 0,50 40.92,90.9 90.92,90.9 h 4676.14 c 50,0 90.9,-40.9 90.9,-90.9 v -12.2 c 0,-50 -40.9,-90.9 -90.9,-90.9" /><path
         id="path34"
         style="fill:#bbd9ff;fill-opacity:1;fill-rule:nonzero;stroke:none"
         d="M 10793.7,13018.4 H 6117.56 c -50,0 -90.92,40.9 -90.92,90.9 v 12.2 c 0,50 40.92,90.9 90.92,90.9 h 4676.14 c 50,0 90.9,-40.9 90.9,-90.9 v -12.2 c 0,-50 -40.9,-90.9 -90.9,-90.9" /><path
         id="path36"
         style="fill:#bbd9ff;fill-opacity:1;fill-rule:nonzero;stroke:none"
         d="M 10793.7,12670.7 H 6117.56 c -50,0 -90.92,40.9 -90.92,91 v 12.1 c 0,50 40.92,90.9 90.92,90.9 h 4676.14 c 50,0 90.9,-40.9 90.9,-90.9 v -12.1 c 0,-50.1 -40.9,-91 -90.9,-91" /><path
         id="path38"
         style="fill:#bbd9ff;fill-opacity:1;fill-rule:nonzero;stroke:none"
         d="M 10793.7,11425.8 H 6117.56 c -50,0 -90.92,40.9 -90.92,90.9 v 12.2 c 0,50 40.92,90.9 90.92,90.9 h 4676.14 c 50,0 90.9,-40.9 90.9,-90.9 v -12.2 c 0,-50 -40.9,-90.9 -90.9,-90.9" /><path
         id="path40"
         style="fill:#bbd9ff;fill-opacity:1;fill-rule:nonzero;stroke:none"
         d="M 10793.7,11078.1 H 6117.56 c -50,0 -90.92,41 -90.92,91 v 12.1 c 0,50 40.92,91 90.92,91 h 4676.14 c 50,0 90.9,-41 90.9,-91 v -12.1 c 0,-50 -40.9,-91 -90.9,-91" /><path
         id="path42"
         style="fill:#bbd9ff;fill-opacity:1;fill-rule:nonzero;stroke:none"
         d="M 10793.7,10182.2 H 6117.56 c -50,0 -90.92,40.9 -90.92,90.9 v 12.2 c 0,50 40.92,90.9 90.92,90.9 h 4676.14 c 50,0 90.9,-40.9 90.9,-90.9 v -12.2 c 0,-50 -40.9,-90.9 -90.9,-90.9" /><path
         id="path44"
         style="fill:#bbd9ff;fill-opacity:1;fill-rule:nonzero;stroke:none"
         d="M 10793.7,9834.5 H 6117.56 c -50,0 -90.92,41 -90.92,91 v 12.1 c 0,50 40.92,91 90.92,91 h 4676.14 c 50,0 90.9,-41 90.9,-91 v -12.1 c 0,-50 -40.9,-91 -90.9,-91" /><path
         id="path46"
         style="fill:#b1d3ff;fill-opacity:1;fill-rule:nonzero;stroke:none"
         d="M 5121.03,13895.2 H 4811 c -134.76,0 -244.39,109.6 -244.39,244.4 v 310 c 0,134.8 109.63,244.4 244.39,244.4 h 310.03 c 134.76,0 244.4,-109.6 244.4,-244.4 v -310 c 0,-134.8 -109.64,-244.4 -244.4,-244.4 M 4811,14554 c -57.56,0 -104.4,-46.8 -104.4,-104.4 v -310 c 0,-57.6 46.84,-104.4 104.4,-104.4 h 310.03 c 57.57,0 104.4,46.8 104.4,104.4 v 310 c 0,57.6 -46.83,104.4 -104.4,104.4 H 4811" /><path
         id="path48"
         style="fill:#b1d3ff;fill-opacity:1;fill-rule:nonzero;stroke:none"
         d="M 5121.03,12577.5 H 4811 c -134.76,0 -244.39,109.7 -244.39,244.4 v 310.1 c 0,134.7 109.63,244.4 244.39,244.4 h 310.03 c 134.76,0 244.4,-109.7 244.4,-244.4 v -310.1 c 0,-134.7 -109.64,-244.4 -244.4,-244.4 M 4811,13236.4 c -57.56,0 -104.4,-46.9 -104.4,-104.4 v -310.1 c 0,-57.5 46.84,-104.4 104.4,-104.4 h 310.03 c 57.57,0 104.4,46.9 104.4,104.4 v 310.1 c 0,57.5 -46.83,104.4 -104.4,104.4 H 4811" /><path
         id="path50"
         style="fill:#f37168;fill-opacity:1;fill-rule:nonzero;stroke:none"
         d="m 4985.41,12761.9 c -0.97,0 -1.94,0 -2.91,0.1 -17.63,0.9 -33.98,9.4 -44.72,23.4 l -222.84,290.7 c -20.16,26.3 -15.18,63.9 11.11,84.1 26.3,20.2 63.96,15.2 84.13,-11.1 l 179.71,-234.4 494.2,529.5 c 22.62,24.2 60.6,25.5 84.81,2.9 24.23,-22.6 25.53,-60.6 2.93,-84.8 L 5029.27,12781 c -11.38,-12.2 -27.28,-19.1 -43.86,-19.1" /><path
         id="path52"
         style="fill:#9ec8ff;fill-opacity:1;fill-rule:nonzero;stroke:none"
         d="m 4811,11684.1 c -63.08,0 -114.39,-51.3 -114.39,-114.4 v -310 c 0,-63.1 51.31,-114.4 114.39,-114.4 h 310.04 c 63.07,0 114.39,51.3 114.39,114.4 v 310 c 0,63.1 -51.32,114.4 -114.39,114.4 z m 310.04,-658.8 H 4811 c -129.24,0 -234.39,105.1 -234.39,234.4 v 310 c 0,129.3 105.15,234.4 234.39,234.4 h 310.04 c 129.24,0 234.39,-105.1 234.39,-234.4 v -310 c 0,-129.3 -105.15,-234.4 -234.39,-234.4" /><path
         id="path54"
         style="fill:#b1d3ff;fill-opacity:1;fill-rule:nonzero;stroke:none"
         d="M 5121.03,9697.6 H 4811 c -134.76,0 -244.39,109.7 -244.39,244.4 v 310.1 c 0,134.7 109.63,244.4 244.39,244.4 h 310.03 c 134.76,0 244.4,-109.7 244.4,-244.4 V 9942 c 0,-134.7 -109.64,-244.4 -244.4,-244.4 M 4811,10356.4 c -57.56,0 -104.4,-46.8 -104.4,-104.3 V 9942 c 0,-57.5 46.84,-104.4 104.4,-104.4 h 310.03 c 57.57,0 104.4,46.9 104.4,104.4 v 310.1 c 0,57.5 -46.83,104.3 -104.4,104.3 H 4811" /><g
         transform="scale(1.00834)"
         id="g56"><path
           id="path58"
           style="fill:#92c5d4;fill-opacity:1;fill-rule:nonzero;stroke:none"
           d="m 6398.69,15447.4 h -194.88 l -367.83,852.6 h 213.14 l 259.44,-609 263.09,609 h 196.09 l -369.05,-852.6" /></g><g
         transform="scale(1.00924)"
         id="g60"><path
           id="path62"
           style="fill:#92c5d4;fill-opacity:1;fill-rule:nonzero;stroke:none"
           d="m 7295.88,15419 c -88.43,0 -168.13,19 -239.12,57.2 -70.99,38.1 -126.56,90.6 -166.71,157.6 -40.15,66.9 -60.23,142.1 -60.23,225.7 0,83.5 20.08,158.8 60.23,225.7 40.15,67 95.72,119.5 166.71,157.6 70.99,38.1 150.69,57.2 239.12,57.2 88.42,0 167.94,-19.1 238.53,-57.2 70.57,-38.1 126.13,-90.6 166.7,-157.6 40.56,-66.9 60.86,-142.2 60.86,-225.7 0,-83.6 -20.3,-158.8 -60.86,-225.7 -40.57,-67 -96.13,-119.5 -166.7,-157.6 -70.59,-38.2 -150.11,-57.2 -238.53,-57.2 m 0,713.1 c -50.3,0 -95.72,-11.6 -136.29,-34.7 -40.56,-23.1 -72.4,-55.4 -95.53,-96.8 -23.12,-41.3 -34.66,-88.4 -34.66,-141.1 0,-52.7 11.54,-99.8 34.66,-141.2 23.13,-41.3 54.97,-73.6 95.53,-96.7 40.57,-23.1 85.99,-34.7 136.29,-34.7 50.3,0 95.72,11.6 136.3,34.7 40.55,23.1 72.42,55.4 95.52,96.7 23.13,41.4 34.69,88.5 34.69,141.2 0,52.7 -11.56,99.8 -34.69,141.1 -23.1,41.4 -54.97,73.7 -95.52,96.8 -40.58,23.1 -86,34.7 -136.3,34.7" /></g><g
         transform="scale(1.00834)"
         id="g64"><path
           id="path66"
           style="fill:#92c5d4;fill-opacity:1;fill-rule:nonzero;stroke:none"
           d="m 8340.14,15447.4 h -197.29 v 691.8 H 7870 v 160.8 h 742.99 v -160.8 h -272.85 v -691.8" /></g><g
         transform="scale(1.00834)"
         id="g68"><path
           id="path70"
           style="fill:#92c5d4;fill-opacity:1;fill-rule:nonzero;stroke:none"
           d="m 9439.98,15447.4 h -660.15 v 852.6 h 644.32 v -158.3 h -448.22 v -185.2 h 395.85 v -153.4 h -395.85 v -197.3 h 464.05 v -158.4" /></g><g
         transform="scale(1.88197)"
         id="g72"><path
           id="path74"
           style="fill:#ffffff;fill-opacity:1;fill-rule:nonzero;stroke:none"
           d="m 15677.5,8339.84 c -33.4,0.49 -66.1,-0.8 -98.1,-3.64 1.8,18.09 2.9,36.35 3.2,54.79 6.1,426.73 -420.9,778.86 -953.9,786.51 -437,6.27 -809.3,-220.99 -932.7,-538.23 -91.6,34.88 -193.5,55.03 -301.1,56.58 -406,5.82 -739,-255.55 -743.6,-583.8 -4.8,-328.26 320.5,-599.08 726.5,-604.91 274.5,-3.94 2051.4,3.39 2288,0 345.2,-4.96 627.7,188.86 631,414.74 3.2,225.88 -274.1,413.01 -619.3,417.96" /></g><g
         transform="scale(1.88197)"
         id="g76"><path
           id="path78"
           style="fill:#63acc2;fill-opacity:1;fill-rule:nonzero;stroke:none"
           d="m 14611,9177.63 c -429.3,0.02 -793.3,-225.37 -915,-538.36 -91.6,34.88 -193.5,55.03 -301.1,56.58 -4.5,0.06 -8.9,0.09 -13.3,0.09 -399.9,0.01 -725.7,-259.23 -730.3,-583.89 -4.8,-328.26 320.5,-599.08 726.5,-604.91 61.4,-0.89 197.7,-1.2 375,-1.2 458.8,0 1192.3,2.13 1613.4,2.13 144.8,0 252.6,-0.26 299.6,-0.93 4.3,-0.06 8.6,-0.09 12.9,-0.09 339.4,0 614.8,191.77 618.1,414.83 3.2,225.88 -274.1,413.01 -619.3,417.96 -4.6,0.07 -9.1,0.1 -13.6,0.1 -28.7,0 -56.9,-1.29 -84.5,-3.74 1.8,18.09 2.9,36.35 3.2,54.79 6.1,426.73 -420.9,778.86 -953.9,786.51 -5.9,0.08 -11.8,0.13 -17.7,0.13 z m 0,-53.14 c 5.7,0 11.3,-0.04 16.9,-0.12 502.8,-7.22 907.3,-335.87 901.6,-732.62 -0.2,-16.29 -1.2,-33.16 -3,-50.15 l -6.5,-64.01 64,5.69 c 26.5,2.34 53.3,3.53 79.9,3.53 4.3,0 8.6,-0.03 12.9,-0.1 156.7,-2.25 302.8,-43.81 411.3,-117.04 101.6,-68.58 156.8,-156.31 155.5,-247.03 -1.3,-90.81 -58,-178.84 -159.7,-247.86 -108.8,-73.9 -252.7,-114.6 -405.2,-114.6 -4,0 -8.1,0.03 -12.1,0.09 -43.7,0.62 -142,0.93 -300.4,0.93 -206.1,0 -481.8,-0.5 -773.8,-1.03 -297.6,-0.54 -605.3,-1.09 -839.6,-1.09 -195.9,0 -318.3,0.38 -374.2,1.19 -376,5.4 -678.5,252.58 -674.2,551.01 2,140.71 71.9,273.15 196.9,372.94 128.1,102.27 298.7,158.59 480.3,158.59 4.2,0 8.4,-0.03 12.6,-0.09 98.8,-1.42 194.1,-19.29 282.9,-53.11 l 49.3,-18.77 19.1,49.17 c 27.7,71.4 69.5,138.73 124.1,200.1 54.4,61.14 120.3,115.01 195.8,160.1 158.1,94.39 346.8,144.29 545.6,144.28" /></g><g
         transform="scale(1.99214)"
         id="g80"><path
           id="path82"
           style="fill:#ffffff;fill-opacity:1;fill-rule:nonzero;stroke:none"
           d="m 15932.9,7230.48 c -19.7,0.28 -39,-0.48 -57.9,-2.15 1.1,10.67 1.7,21.44 1.9,32.31 3.6,251.7 -248.3,459.4 -562.7,463.91 -257.7,3.7 -477.3,-130.34 -550.1,-317.46 -54,20.57 -114.1,32.45 -177.6,33.37 -239.5,3.44 -435.8,-150.73 -438.6,-344.35 -2.8,-193.61 189.1,-353.35 428.5,-356.79 161.9,-2.33 1210,2 1349.5,0 203.7,-2.92 370.3,111.39 372.2,244.63 1.9,133.23 -161.6,243.61 -365.2,246.53" /></g><g
         transform="scale(1.99214)"
         id="g84"><path
           id="path86"
           style="fill:#63acc2;fill-opacity:1;fill-rule:nonzero;stroke:none"
           d="m 15303.8,7724.62 c -253.2,0.02 -467.9,-132.93 -539.7,-317.53 -54,20.57 -114.1,32.45 -177.6,33.37 -2.6,0.03 -5.3,0.05 -7.9,0.05 -235.8,0.01 -428,-152.9 -430.7,-344.4 -2.8,-193.61 189.1,-353.35 428.5,-356.79 36.2,-0.52 116.6,-0.71 221.2,-0.71 270.7,0 703.3,1.26 951.6,1.26 85.5,0 149,-0.16 176.7,-0.55 2.6,-0.04 5.2,-0.05 7.7,-0.05 200.1,0 362.6,113.11 364.5,244.68 1.9,133.23 -161.6,243.61 -365.2,246.53 -2.7,0.03 -5.4,0.05 -8.1,0.05 -16.9,0 -33.5,-0.76 -49.8,-2.2 1.1,10.67 1.7,21.44 1.9,32.31 3.6,251.7 -248.3,459.4 -562.7,463.91 -3.4,0.05 -6.9,0.07 -10.4,0.07 z m 0,-50.19 c 3.2,0 6.5,-0.02 9.7,-0.07 140.7,-2.02 271.8,-47.41 369.4,-127.8 94.2,-77.73 145.3,-179.01 143.8,-285.2 -0.2,-9.07 -0.7,-18.47 -1.7,-27.94 l -6.1,-60.46 60.5,5.37 c 15.1,1.33 30.3,2.01 45.4,2.01 2.4,0 4.9,-0.02 7.4,-0.05 172.6,-2.49 317.2,-92.07 315.7,-195.62 -0.7,-46.56 -32,-94.25 -85.9,-130.87 -61.1,-41.49 -142.2,-64.34 -228.4,-64.34 -2.3,0 -4.6,0.02 -6.9,0.05 -25.9,0.37 -83.9,0.55 -177.5,0.55 -121.5,0 -284.2,-0.29 -456.4,-0.61 -175.5,-0.31 -357,-0.64 -495.2,-0.64 -115.5,0 -187.5,0.23 -220.4,0.7 -211.4,3.04 -381.5,140.25 -379.1,305.88 1.1,77.25 39.8,150.23 109.1,205.51 72.2,57.67 168.6,89.42 271.4,89.42 2.4,0 4.8,-0.02 7.2,-0.06 56.1,-0.8 110.1,-10.92 160.4,-30.08 l 46.6,-17.74 18,46.45 c 31.1,79.92 95.3,152.05 180.9,203.1 90.3,53.94 198.2,82.44 312.1,82.44" /></g><path
         id="path88"
         style="fill:#9cd499;fill-opacity:1;fill-rule:nonzero;stroke:none"
         d="m 3840.47,2343.1 c 0,0 -2091.5,2223.5 -1285.75,2380.1 805.75,156.6 1652.06,-1861 1728.9,-1652.2 76.85,208.8 -563.15,2464.7 -203.15,2516.7 360,52.1 961.32,-2562.3 961.32,-2562.3 0,0 85.54,1363 742.11,1648.7 656.57,285.7 -157.99,-2284 -157.99,-2284 l -1785.44,-47" /><g
         transform="scale(1.75229)"
         id="g90"><path
           id="path92"
           style="fill:#9cd499;fill-opacity:1;fill-rule:nonzero;stroke:none"
           d="m 13034.6,2863.45 c 1071.6,755.52 1358.2,1120.75 1646.8,2313.13 288.5,1192.4 1618.6,2632.4 1046.6,2388.72 -572,-243.69 -1560.5,-1295.66 -1520.6,-2316.52 40,-1020.95 -108.3,-1314.8 -276.5,-1549.12 -168.3,-234.38 -889.5,-754.04 -889.5,-754.04 l -6.8,-82.17" /></g><g
         transform="scale(1.70585)"
         id="g94"><path
           id="path96"
           style="fill:#74b570;fill-opacity:1;fill-rule:nonzero;stroke:none"
           d="m 14074.1,3465.83 c 3.9,3.35 7.7,6.69 11.5,10.03 66,87.52 403,540.2 481.8,771.99 87.6,257.29 17.4,923.7 288.9,1407.15 271.4,483.44 397.9,940.51 527.1,1287.42 170.6,458.04 664.1,805.01 916.6,827.08 -0.9,4.69 -2.6,8.78 -4.7,12.38 l -62.2,14.77 c -20.6,-3.88 -46,-12.21 -76.9,-25.39 -587.6,-250.32 -1603,-1330.93 -1562,-2379.59 41.1,-1048.74 -111.2,-1350.58 -284.1,-1591.34 -46.6,-64.9 -134.6,-151.19 -238.1,-242.52 l 2.1,-91.98" /></g><g
         transform="scale(1.94208)"
         id="g98"><path
           id="path100"
           style="fill:#9cd499;fill-opacity:1;fill-rule:nonzero;stroke:none"
           d="m 13056.3,3976.77 c 279,1101.14 3243.7,2276.75 2974.6,1933.79 -269.2,-342.95 -985.1,-1169.61 -1794.5,-1482.06 -809.4,-312.45 -1117.7,-766.29 -1314,-1320.7 -196.3,-554.45 -145.1,-232.17 133.9,868.97" /></g><g
         transform="scale(1.89352)"
         id="g102"><path
           id="path104"
           style="fill:#74b570;fill-opacity:1;fill-rule:nonzero;stroke:none"
           d="m 12900,2729.36 c -22.2,0 -38.7,4.59 -40,4.96 -8.4,2.49 -13.2,11.25 -10.8,19.65 2.5,8.4 11.2,13.26 19.6,10.83 0.5,-0.11 47,-12.94 82.2,9.66 21.2,13.68 34.6,38.08 39.8,72.56 33.7,221.87 109.2,390.86 175.9,540 40.9,91.47 76.2,170.48 95.7,247.69 28,111.01 109.4,306.52 253.8,522.31 176.3,263.53 406.3,494.79 665,668.8 304.1,204.54 519.7,320.47 818,480.94 294.8,158.54 661.8,355.84 1274.6,722.55 7.5,4.49 17.2,2.05 21.7,-5.46 4.5,-7.51 2.1,-17.24 -5.4,-21.73 -613.5,-367.08 -980.7,-564.58 -1275.9,-723.28 -297.5,-160.02 -512.5,-275.62 -815.4,-479.32 -602.5,-405.33 -858,-983.88 -905.6,-1172.57 -20.2,-79.91 -57.8,-163.93 -97.5,-252.86 -65.9,-147.3 -140.6,-314.18 -173.6,-531.82 -6.6,-43.99 -24.9,-75.84 -54.2,-94.64 -22.7,-14.41 -47.6,-18.27 -67.9,-18.27" /></g><g
         transform="scale(1.84261)"
         id="g106"><path
           id="path108"
           style="fill:#74b570;fill-opacity:1;fill-rule:nonzero;stroke:none"
           d="m 15464.8,5418.79 c -31.3,0 -49.5,1.3 -51.3,1.41 -9,0.65 -15.7,8.46 -15,17.43 0.6,8.97 8.4,15.61 17.4,15.05 4.4,-0.31 445.6,-29.12 856.9,226.94 7.7,4.74 17.7,2.42 22.4,-5.23 4.8,-7.63 2.5,-17.67 -5.2,-22.41 -219.8,-136.85 -446.2,-192.58 -597.4,-215.24 -99.5,-14.91 -179.4,-17.95 -227.8,-17.95" /></g><g
         transform="scale(1.77991)"
         id="g110"><path
           id="path112"
           style="fill:#74b570;fill-opacity:1;fill-rule:nonzero;stroke:none"
           d="m 15897.5,5253.74 c -291,0 -465.9,56.01 -468.3,56.8 -8.9,2.92 -13.7,12.41 -10.8,21.23 3,8.88 12.5,13.66 21.3,10.79 3.3,-1.07 331.5,-105.79 839.5,-23.88 9.1,1.46 17.8,-4.77 19.3,-13.99 1.5,-9.15 -4.8,-17.81 -14,-19.32 -144.2,-23.21 -274.3,-31.63 -387,-31.63" /></g><g
         transform="scale(1.85785)"
         id="g114"><path
           id="path116"
           style="fill:#9cd499;fill-opacity:1;fill-rule:nonzero;stroke:none"
           d="m 4825.28,1286.49 c 0,0 -1031.63,1055.14 -892.32,1254.78 239.8,343.67 1260.85,-846.14 1260.85,-846.14 0,0 -1430.12,3202.78 -1167.4,3895.43 262.71,692.62 1333.45,-1534.75 1333.45,-1534.75 0,0 1027.68,4961.65 1483.42,4898.84 455.74,-62.79 221.87,-2586.07 221.87,-2586.07 l 3103.35,1123.81 c 0,0 1350.4,1301.07 1673.4,1102.67 322.9,-198.4 -572,-1420.77 -436.7,-1369.37 135.3,51.4 1528,1566.48 1940.4,1239.54 412.5,-326.93 -1650.5,-1698.81 -1650.5,-1698.81 l 1381.8,-4652.04 c 0,0 1111.9,2411.33 2354.4,2160.13 636.7,-128.7 -1308.2,-1895.47 -1308.2,-1895.47 0,0 1218.3,888.82 1697.6,628.57 479.3,-260.25 -1330.9,-926.01 -1093.6,-1023.71 237.3,-97.74 -511.3,-582.17 -511.3,-582.17 0,0 591,361.43 852.5,211.8 261.5,-149.58 174.9,-352.34 174.9,-352.34 l -10417.92,25.3" /></g><g
         transform="scale(2.06874)"
         id="g118"><path
           id="path120"
           style="fill:#9cd499;fill-opacity:1;fill-rule:nonzero;stroke:none"
           d="m 14825.4,1155.34 c 0,0 63.1,1247.91 314.5,1196.67 251.3,-51.19 -58,-935.21 0,-889.57 58,45.63 572.3,1484.91 866.2,1238.96 293.9,-245.9 -590.4,-1111.21 -590.4,-1111.21 0,0 451.1,310.39 590.4,191.47 139.2,-118.91 -460.2,-626.32 -460.2,-626.32 h -720.5" /></g><path
         id="path122"
         style="fill:#9cd499;fill-opacity:1;fill-rule:nonzero;stroke:none"
         d="m 9244.65,4564.8 c -1.8,51 -1264.14,2509.9 -2424.96,2249 -1160.82,-260.8 -1322.02,-614 -2123.6,-775.2 -571.87,-115.1 -1049.06,-98.5 -1049.06,-98.5 0,0 558.63,-622.3 1654.68,-554.5 774.94,47.9 1552.79,734.6 2116.15,841.4 563.37,106.9 1259.1,-926.1 1259.1,-926.1 l 310.95,-556.2 256.74,-179.9" /><path
         id="path124"
         style="fill:#74b570;fill-opacity:1;fill-rule:nonzero;stroke:none"
         d="m 8881.1,5278.1 c -9.16,0 -18.2,4.2 -24.09,12.1 -652.46,877.1 -1190.26,1328.1 -1692.51,1419.2 -441.28,80.1 -797.9,-129.9 -1175.42,-352.1 -95.39,-56.2 -194.02,-114.2 -294.01,-167.3 -875.9,-464.4 -1396.97,-408 -1418.72,-405.4 -16.44,2 -28.17,16.9 -26.18,33.3 1.98,16.5 16.9,28.2 33.38,26.2 5.12,-0.6 526.2,-55.6 1383.41,399 98.81,52.4 196.86,110.1 291.68,165.9 387.39,228.1 753.27,443.5 1216.57,359.4 518.14,-94 1067.85,-552.3 1729.95,-1442.4 9.88,-13.3 7.13,-32.1 -6.18,-42 -5.37,-4 -11.65,-5.9 -17.88,-5.9" /><path
         id="path126"
         style="fill:#9cd499;fill-opacity:1;fill-rule:nonzero;stroke:none"
         d="m 9256.84,4532.2 c -895.95,2853.5 -2126.25,4138.3 -3936.39,4848.3 -1810.14,710 -1987.93,1005.9 -1987.93,1005.9 0,0 1082.63,-2285.7 2171.89,-2813.7 1089.26,-528.1 2464.06,-710.1 2786.98,-1073 322.92,-362.9 786.84,-1809.6 786.84,-1809.6 l 200.93,-218.5 -22.32,60.6" /><path
         id="path128"
         style="fill:#74b570;fill-opacity:1;fill-rule:nonzero;stroke:none"
         d="m 9210.59,4674.5 c -13.27,0 -25.38,8.8 -28.97,22.2 -1.24,4.7 -127.24,471.4 -408.14,1067.1 -258.82,548.8 -705.91,1322.6 -1365.97,1891.9 -653.44,563.7 -1235.2,817.1 -1797.8,1062.2 -532.82,232 -1036.08,451.2 -1529.08,914.5 -12.08,11.3 -12.67,30.3 -1.32,42.4 11.34,12.1 30.33,12.7 42.4,1.3 485.42,-456.1 984.05,-673.3 1511.96,-903.2 566.7,-246.9 1152.71,-502.1 1813.04,-1071.7 668.37,-576.6 1120.22,-1358.5 1381.59,-1913 282.99,-600.3 410.04,-1071.3 411.29,-1076 4.27,-16 -5.24,-32.5 -21.25,-36.7 -2.59,-0.7 -5.2,-1 -7.75,-1" /><path
         id="path130"
         style="fill:#74b570;fill-opacity:1;fill-rule:nonzero;stroke:none"
         d="m 6274.08,8419.8 c -2.97,0 -5.99,0.4 -8.98,1.3 -6.75,2.2 -684.03,210.1 -1470.21,80.6 -16.36,-2.7 -31.78,8.4 -34.47,24.7 -2.7,16.4 8.37,31.8 24.73,34.5 800.88,131.9 1491.05,-80.4 1497.92,-82.5 15.81,-5 24.6,-21.8 19.64,-37.6 -4.03,-12.8 -15.86,-21 -28.63,-21" /><path
         id="path132"
         style="fill:#74b570;fill-opacity:1;fill-rule:nonzero;stroke:none"
         d="m 7579.38,7515.3 c -6.65,0 -13.34,2.2 -18.9,6.7 -622.56,506.2 -1138.67,503.4 -2246.72,449 -16.67,-1.2 -30.63,11.9 -31.44,28.5 -0.82,16.5 11.95,30.6 28.49,31.4 1123.96,55.2 1647.84,57.8 2287.52,-462.4 12.85,-10.4 14.8,-29.3 4.36,-42.2 -5.94,-7.3 -14.58,-11 -23.31,-11" /><g
         transform="scale(2.06787)"
         id="g134"><path
           id="path136"
           style="fill:#232e4f;fill-opacity:1;fill-rule:nonzero;stroke:none"
           d="M 16268.6,1124.4 H 1266.88 c -17.36,0 -31.44,14.07 -31.44,31.43 0,17.36 14.08,31.43 31.44,31.43 H 16268.6 c 17.3,0 31.4,-14.07 31.4,-31.43 0,-17.36 -14.1,-31.43 -31.4,-31.43" /></g><g
         transform="scale(1.09942)"
         id="g138"><path
           id="path140"
           style="fill:#facf50;fill-opacity:1;fill-rule:nonzero;stroke:none"
           d="m 14891.8,14536.9 c 235.7,-150.1 683,-666.1 968.2,-966.3 285.4,-300.1 440,-466.9 440,-466.9 l -3520,84.9 c 0,0 191,137.9 363.8,391.1 172.8,253.2 230.6,482.4 709.4,809.5 482.1,329.3 808.5,294.2 1038.6,147.7" /></g><g
         transform="scale(1.09237)"
         id="g142"><path
           id="path144"
           style="fill:#e0b03e;fill-opacity:1;fill-rule:nonzero;stroke:none"
           d="m 14354.5,14509.5 c 173.9,0 283.8,-668.3 366.2,-814.8 82.4,-146.4 516,-173.9 516,-173.9 v 276.1 c 0,0 79,-207.5 133.9,-338.6 155.7,99.1 361.6,218.1 563.1,232 18.4,-10.2 366.3,-369.4 366.3,-369.4 l -2897.5,-47.3 c 0,0 -174,91.6 -146.5,91.6 27.5,0 241.9,366.1 418.4,526.3 176.6,160.2 680.1,618 680.1,618" /></g><g
         transform="scale(1.10739)"
         id="g146"><path
           id="path148"
           style="fill:#facf50;fill-opacity:1;fill-rule:nonzero;stroke:none"
           d="m 15108,13224.5 c 0,0 559.9,239.3 839.8,198.7 280,-40.6 352.2,-198.7 352.2,-198.7 h -1192" /></g><g
         transform="scale(1.36928)"
         id="g150"><path
           id="path152"
           style="fill:#3e6bab;fill-opacity:1;fill-rule:nonzero;stroke:none"
           d="M 14687.5,2429.09 V 4031.4 H 10975.9 V 2429.09 H 9769.18 c -224.06,0 -405.62,-181.62 -405.62,-405.68 v -98.6 c 0,-72.81 59.01,-131.82 131.82,-131.82 h 6672.72 c 72.9,0 131.9,59.01 131.9,131.82 v 98.6 c 0,224.06 -181.6,405.68 -405.6,405.68 h -1206.9" /></g><g
         transform="scale(1.23382)"
         id="g154"><path
           id="path156"
           style="fill:#1c447a;fill-opacity:1;fill-rule:nonzero;stroke:none"
           d="m 12180.9,3255.01 4119.1,317.55 v 749.05 l -4119.1,-43.6 v -1023" /></g><g
         transform="scale(1.23382)"
         id="g158"><path
           id="path160"
           style="fill:#1c447a;fill-opacity:1;fill-rule:nonzero;stroke:none"
           d="M 16300,2987.3 12180.9,2695.77 H 16300 v 291.53" /></g><g
         transform="scale(1.56515)"
         id="g162"><path
           id="path164"
           style="fill:#3e6bab;fill-opacity:1;fill-rule:nonzero;stroke:none"
           d="M 16126.2,3206.52 H 6325.62 c -96.01,0 -173.84,77.82 -173.84,173.85 v 5838.81 c 0,96.01 77.83,173.84 173.84,173.84 h 9800.58 c 96,0 173.8,-77.83 173.8,-173.84 V 3380.37 c 0,-96.03 -77.8,-173.85 -173.8,-173.85" /></g><g
         transform="scale(1.53777)"
         id="g166"><path
           id="path168"
           style="fill:#bfe6f2;fill-opacity:1;fill-rule:nonzero;stroke:none"
           d="M 16140.8,3900.92 H 6710.83 c -87.98,0 -159.25,71.27 -159.25,159.19 v 5084.27 c 0,87.94 71.27,159.23 159.25,159.23 h 9429.97 c 87.9,0 159.2,-71.29 159.2,-159.23 V 4060.11 c 0,-87.92 -71.3,-159.19 -159.2,-159.19" /></g><g
         transform="scale(1.11882)"
         id="g170"><path
           id="path172"
           style="fill:#1c447a;fill-opacity:1;fill-rule:nonzero;stroke:none"
           d="M 16200.7,4765.84 H 15208 c -54.7,0 -99.4,44.69 -99.4,99.3 v 29.94 c 0,54.62 44.7,99.22 99.4,99.22 h 992.7 c 54.6,0 99.3,-44.6 99.3,-99.22 v -29.94 c 0,-54.61 -44.7,-99.3 -99.3,-99.3" /></g><g
         transform="scale(1.52194)"
         id="g174"><path
           id="path176"
           style="fill:#ffffff;fill-opacity:1;fill-rule:nonzero;stroke:none"
           d="m 14679.5,6132.75 c -86.9,1.25 -172.3,-2.37 -255.7,-10.25 4.9,49.93 7.9,100.33 8.6,151.25 16.9,1178.03 -1094.5,2149.17 -2482.3,2169.09 -1137.9,16.33 -2108.15,-611.87 -2430.17,-1487.92 -238.45,96.09 -503.77,151.49 -783.87,155.5 -1057.2,15.18 -1924.84,-707.1 -1937.85,-1613.31 -13.01,-906.21 833.54,-1653.08 1890.8,-1668.26 714.68,-10.25 5342.09,14 5957.99,5.13 899,-12.88 1635.1,522.75 1644.1,1146.36 8.9,623.54 -712.6,1139.53 -1611.6,1152.41" /></g><g
         transform="scale(1.52194)"
         id="g178"><path
           id="path180"
           style="fill:#2e5b9a;fill-opacity:1;fill-rule:nonzero;stroke:none"
           d="m 11906.7,8443.15 c -1119.1,0.03 -2068.89,-623.31 -2386.77,-1488.23 -238.45,96.09 -503.77,151.48 -783.87,155.5 -10.91,0.16 -21.81,0.24 -32.66,0.24 -1042.41,0.02 -1892.31,-716.74 -1905.19,-1613.55 -13.01,-906.21 833.54,-1653.08 1890.8,-1668.26 129.05,-1.84 385.89,-2.56 723.55,-2.56 1233.24,0 3546.44,9.66 4664.84,9.66 270.8,0 471.2,-0.53 569.6,-1.97 10.6,-0.13 21.3,-0.2 31.9,-0.2 884.5,0 1603.3,530.31 1612.2,1146.56 8.9,623.54 -712.6,1139.53 -1611.6,1152.41 -11.2,0.19 -22.5,0.26 -33.6,0.26 -75.3,0 -149.4,-3.61 -222.1,-10.51 4.9,49.93 7.9,100.33 8.6,151.25 16.9,1178.03 -1094.5,2149.17 -2482.3,2169.09 -14.4,0.21 -29,0.31 -43.4,0.31 z m 0,-131.41 c 13.8,0 27.8,-0.1 41.5,-0.29 324.1,-4.66 637.5,-62.96 931.4,-173.3 282.9,-106.17 535.9,-255.72 752,-444.51 214.5,-187.44 381.7,-404.01 496.8,-643.71 118.4,-246.35 176.5,-506.85 172.6,-774.28 -0.6,-45.66 -3.3,-92.9 -7.9,-140.47 l -15.4,-158.55 158.6,15.05 c 69.4,6.57 140,9.92 209.6,9.92 10.5,0 21.1,-0.07 31.7,-0.2 207.2,-3.02 407.6,-33.97 595.4,-91.99 179.5,-55.52 339.8,-133.12 476.3,-230.75 268.3,-191.86 414,-439.18 410.4,-696.42 -1.9,-127.33 -39.7,-252.83 -112.4,-373.07 -73.1,-120.96 -177.7,-230.82 -310.7,-326.56 -137,-98.49 -296,-176.15 -472.8,-230.82 -185.9,-57.49 -382.6,-86.6 -584.9,-86.6 -10,0 -20,0.07 -29.9,0.2 -93.5,1.31 -280.5,1.97 -571.6,1.97 -545.7,0 -1361.8,-2.24 -2225.8,-4.67 -888.7,-2.49 -1807.5,-4.99 -2439.04,-4.99 -365.32,0 -601.4,0.79 -721.71,2.56 -243.11,3.49 -478.13,47.57 -698.58,131.08 -211.9,80.3 -401.32,193.38 -563.09,336.02 -160.25,141.4 -285.1,304.74 -371.04,485.37 -88.17,185.35 -131.41,381.35 -128.52,582.47 5.65,394.83 190.35,765.87 519.99,1044.66 162.56,137.54 351.85,245.57 562.51,321.11 218.86,78.49 451.46,118.28 691.28,118.28 10.25,0 20.64,-0.07 30.82,-0.22 257.5,-3.7 505.34,-52.82 736.56,-146 l 125.69,-50.65 46.78,127.2 c 73.27,199.35 183.26,387.17 326.96,558.25 142.69,169.86 315.29,319.41 512.99,444.52 200.6,127.01 422.5,225.79 659.3,293.57 245.4,70.23 502.5,105.83 764.2,105.82 v 0" /></g><g
         transform="scale(1.29995)"
         id="g182"><path
           id="path184"
           style="fill:#f37168;fill-opacity:1;fill-rule:nonzero;stroke:none"
           d="m 16300,4614.56 h -5739 v 2306.01 l 1535.3,536.64 H 14667 l 1633,-536.64 V 4614.56" /></g><g
         transform="scale(1.29995)"
         id="g186"><path
           id="path188"
           style="fill:#d54a41;fill-opacity:1;fill-rule:nonzero;stroke:none"
           d="M 12096.3,7457.21 10561,6920.57 h 5739 l -1633,536.64 h -2570.7" /></g><g
         transform="scale(1.15899)"
         id="g190"><path
           id="path192"
           style="fill:#f37168;fill-opacity:1;fill-rule:nonzero;stroke:none"
           d="m 16300,7986.32 h -2510.5 l 451.2,242.72 h 1608.2 l 451.1,-242.72" /></g><g
         transform="scale(1.13441)"
         id="g194"><path
           id="path196"
           style="fill:#993341;fill-opacity:1;fill-rule:nonzero;stroke:none"
           d="M 16273.6,8256.88 H 14494 c -14.6,0 -26.5,11.9 -26.5,26.45 0,14.63 11.9,26.44 26.5,26.44 h 1779.6 c 14.6,0 26.4,-11.81 26.4,-26.44 0,-14.55 -11.8,-26.45 -26.4,-26.45" /></g><g
         transform="scale(1.19572)"
         id="g198"><path
           id="path200"
           style="fill:#d54a41;fill-opacity:1;fill-rule:nonzero;stroke:none"
           d="m 16096.4,5629.14 h -3052.3 c -111.9,0 -203.5,91.66 -203.5,203.56 v 525.71 c 0,111.98 91.6,203.56 203.5,203.56 h 3052.3 c 111.9,0 203.6,-91.58 203.6,-203.56 V 5832.7 c 0,-111.9 -91.7,-203.56 -203.6,-203.56" /></g><g
         transform="scale(1.1123)"
         id="g202"><path
           id="path204"
           style="fill:#dbe5eb;fill-opacity:1;fill-rule:nonzero;stroke:none"
           d="m 14526,10848.3 c 95,145.7 982,405.4 1045.4,399.1 63.3,-6.3 523.1,-1039 619.5,-1444.47 96.4,-405.46 109.1,-468.82 109.1,-468.82 0,0 -1026.3,-335.78 -1216.4,-367.47 -190.1,-31.64 -190.1,-31.64 -190.1,-31.64 0,0 -95,912.28 -190.1,1248.1 -95,335.7 -177.4,665.2 -177.4,665.2" /></g><g
         transform="scale(1.07855)"
         id="g206"><path
           id="path208"
           style="fill:#3e6bab;fill-opacity:1;fill-rule:nonzero;stroke:none"
           d="m 15666.6,9648.73 c -10.1,0 -19.4,6.72 -22.3,16.95 -3.4,12.32 3.7,25.12 16,28.56 l 607.7,169.87 c 12.3,3.48 25.1,-3.76 28.6,-16.09 3.4,-12.32 -3.7,-25.11 -16.1,-28.55 l -607.6,-169.87 c -2.2,-0.59 -4.2,-0.87 -6.3,-0.87" /></g><g
         transform="scale(1.0751)"
         id="g210"><path
           id="path212"
           style="fill:#3e6bab;fill-opacity:1;fill-rule:nonzero;stroke:none"
           d="m 15684.1,9764.94 c -10,0 -19.3,6.62 -22.3,16.82 -3.5,12.33 3.6,25.22 15.9,28.77 l 589.9,170.43 c 12.4,3.59 25.2,-3.54 28.9,-15.89 3.5,-12.33 -3.6,-25.23 -15.9,-28.79 l -589.9,-170.41 c -2.3,-0.63 -4.4,-0.93 -6.6,-0.93" /></g><g
         transform="scale(1.06515)"
         id="g214"><path
           id="path216"
           style="fill:#3e6bab;fill-opacity:1;fill-rule:nonzero;stroke:none"
           d="m 15718.2,10213.4 c -10.3,0 -19.7,6.9 -22.6,17.3 -3.4,12.5 3.9,25.4 16.4,28.8 l 555.7,153.3 c 12.6,3.5 25.4,-3.9 28.9,-16.4 3.4,-12.5 -3.9,-25.4 -16.4,-28.8 l -555.7,-153.3 c -2.1,-0.6 -4.2,-0.9 -6.3,-0.9" /></g><g
         transform="scale(1.06515)"
         id="g218"><path
           id="path220"
           style="fill:#3e6bab;fill-opacity:1;fill-rule:nonzero;stroke:none"
           d="m 15718.1,10290 c -10.2,0 -19.7,6.8 -22.6,17.2 -3.5,12.5 3.8,25.4 16.3,28.9 l 555.8,154.9 c 12.4,3.5 25.4,-3.8 28.9,-16.3 3.5,-12.5 -3.8,-25.4 -16.3,-28.9 l -555.8,-154.9 c -2.1,-0.6 -4.2,-0.9 -6.3,-0.9" /></g><g
         transform="scale(1.05564)"
         id="g222"><path
           id="path224"
           style="fill:#3e6bab;fill-opacity:1;fill-rule:nonzero;stroke:none"
           d="m 15732.9,10692.5 c -10.3,0 -19.6,6.7 -22.7,17 -3.8,12.5 3.4,25.7 15.9,29.4 l 540.7,160.3 c 12.5,3.6 25.8,-3.5 29.5,-16 3.7,-12.6 -3.4,-25.7 -16,-29.5 l -540.7,-160.2 c -2.2,-0.6 -4.5,-1 -6.7,-1" /></g><g
         transform="scale(1.05348)"
         id="g226"><path
           id="path228"
           style="fill:#3e6bab;fill-opacity:1;fill-rule:nonzero;stroke:none"
           d="m 15765.2,10794.8 c -6.1,0 -12.2,2.3 -16.7,6.9 -9.3,9.3 -9.3,24.3 0,33.6 5.3,5.3 17.6,17.8 518.7,159.9 12.6,3.6 25.7,-3.7 29.3,-16.3 3.5,-12.7 -3.8,-25.8 -16.4,-29.3 -179.4,-51 -472.2,-136.3 -501.1,-150.4 -4.1,-2.9 -9,-4.4 -13.8,-4.4" /></g><g
         transform="scale(1.09014)"
         id="g230"><path
           id="path232"
           style="fill:#d54a41;fill-opacity:1;fill-rule:nonzero;stroke:none"
           d="m 16101.3,10049.6 c -2.1,0 -4.3,0.3 -6.5,0.8 -14.8,3.6 -23.9,18.5 -20.2,33.3 l 61.1,248.3 c 2.3,9.4 9.5,17 18.7,19.8 9.3,2.8 19.3,0.6 26.5,-5.9 l 107,-97 c 11.3,-10.2 12.1,-27.6 1.9,-38.9 -10.3,-11.2 -27.6,-12.1 -38.9,-1.9 l -72.8,66 -50,-203.5 c -3.1,-12.6 -14.4,-21 -26.8,-21" /></g><g
         transform="scale(1.03693)"
         id="g234"><path
           id="path236"
           style="fill:#f09959;fill-opacity:1;fill-rule:nonzero;stroke:none"
           d="m 16138.2,15993 -508.3,-479.5 c -132.1,-102.7 -147,-181.1 -122.1,-346.5 30.7,-204.7 83,-360.7 167.1,-360.7 144.6,0 131.8,401.8 131.8,401.8 l 493.3,496.2 -161.8,288.7" /></g><g
         transform="scale(1.03693)"
         id="g238"><path
           id="path240"
           style="fill:#e38540;fill-opacity:1;fill-rule:nonzero;stroke:none"
           d="m 16138.2,15993 -150.2,-116.8 c -65.2,-194.2 -90.4,-419.4 -84.8,-571 l 396.8,399.1 -161.8,288.7" /></g><g
         transform="scale(1.06758)"
         id="g242"><path
           id="path244"
           style="fill:#f09959;fill-opacity:1;fill-rule:nonzero;stroke:none"
           d="m 16190.3,15069.7 c -102.9,-201.5 -281.6,-369 -419.9,-333.3 -143.3,37 -287.9,281.7 -179.3,505.3 105.3,216.7 254.5,380.8 419.9,333.3 165.5,-47.4 289,-290.7 179.3,-505.3" /></g><g
         transform="scale(1.03398)"
         id="g246"><path
           id="path248"
           style="fill:#f09959;fill-opacity:1;fill-rule:nonzero;stroke:none"
           d="m 15861.6,12521 c 174.1,-264.3 335.2,-451.3 386.9,-651.2 51.5,-199.9 -83.9,-509.3 -164.5,-406.2 -80.6,103.2 -190.2,130.7 -216,419.1 -32.2,361.1 -161.1,410.6 -161.1,410.6 l 154.7,227.7" /></g><g
         transform="scale(1.01639)"
         id="g250"><path
           id="path252"
           style="fill:#facf50;fill-opacity:1;fill-rule:nonzero;stroke:none"
           d="m 15476.9,15659.5 c 196.8,-94.8 206.6,-1708.4 511.6,-2406.9 305,-698.6 311.5,-703.3 311.5,-703.3 0,0 -263.4,-154.4 -320.3,-181 -56.8,-26.5 -721.9,835 -847.2,1317.2 -226.3,870.7 -447.6,1008.5 -698.5,1047.8 44.3,127.9 285.3,428 570.6,674 285.3,246 472.3,252.2 472.3,252.2" /></g><g
         transform="scale(1.11085)"
         id="g254"><path
           id="path256"
           style="fill:#f09959;fill-opacity:1;fill-rule:nonzero;stroke:none"
           d="m 15562.9,13234.5 c 0,0 165,124.5 309.2,106.5 144.3,-18 427.9,-148.6 369.4,-193.6 -58.5,-45 -220.6,-49.5 -319.6,0 -99,49.5 -336.5,109.6 -359,87.1" /></g><g
         transform="scale(1.07488)"
         id="g258"><path
           id="path260"
           style="fill:#3a384d;fill-opacity:1;fill-rule:nonzero;stroke:none"
           d="m 15199.3,15080.1 c 213.7,16 317.4,172.4 336.7,195.8 19.4,23.5 31.4,-186.5 72.4,-201.5 41.1,-15.1 87.4,99.7 138.3,197.1 50.9,97.5 119.1,88.7 125.3,0 6.2,-88.6 66.8,-355.5 211.7,-415.5 117,-48.6 216.3,-67.1 216.3,-67.1 0,0 -35,187.2 -21.8,347.5 21.8,263.4 -207.2,486.8 -387.5,517.9 -144,24.8 -393.2,4.4 -496.3,-198.5 -99.2,-195.4 -195.1,-375.7 -195.1,-375.7" /></g><g
         transform="scale(1.03115)"
         id="g262"><path
           id="path264"
           style="fill:#f09959;fill-opacity:1;fill-rule:nonzero;stroke:none"
           d="m 16278.5,15843.6 c -21.6,-65.5 -76.4,-106.2 -122.5,-91 -46.2,15.1 -66.2,80.5 -44.7,145.9 21.5,65.5 76.4,106.2 122.6,91 46.1,-15.1 66.1,-80.5 44.6,-145.9" /></g><g
         transform="scale(1.68917)"
         id="g266"><path
           id="path268"
           style="fill:#3a384d;fill-opacity:1;fill-rule:nonzero;stroke:none"
           d="m 16103.3,6660.77 c -78.1,60.2 -459.8,-93.77 -467.6,-234.44 -7.8,-140.66 104.9,-441.09 349.1,-462.37 244.2,-21.28 273.5,6.51 294.4,199.27 20.8,192.77 -67.8,414.19 -175.9,497.54" /></g><g
         transform="scale(1.7985)"
         id="g270"><path
           id="path272"
           style="fill:#303c60;fill-opacity:1;fill-rule:nonzero;stroke:none"
           d="m 16110.8,1784.38 c 0,0 163.1,-67.39 137,-102.2 -26.1,-34.86 52.2,-233.8 52.2,-233.8 h -32.6 l -62,127.94 c 0,0 26.1,-154.91 -29.3,-178.93 -55.5,-24.08 -248,-78.68 -234.9,-33.86 6.9,23.85 53,82.4 53,82.4 l 116.6,338.45" /></g><g
         transform="scale(1.78194)"
         id="g274"><path
           id="path276"
           style="fill:#f09959;fill-opacity:1;fill-rule:nonzero;stroke:none"
           d="m 16156.1,1771.55 c 28.6,-79.3 2.3,-299.84 -37.2,-342.66 -39.5,-42.82 121.8,-3.31 151.5,36.19 29.6,39.51 22.1,297.43 22.1,297.43 l -136.4,9.04" /></g><g
         transform="scale(1.58261)"
         id="g278"><path
           id="path280"
           style="fill:#303c60;fill-opacity:1;fill-rule:nonzero;stroke:none"
           d="m 16173.1,1989.94 c 0,0 126.9,-155.32 82,-176.1 -44.9,-20.73 -73.9,-262.04 -73.9,-262.04 l -32.7,17.63 7.1,161.44 c 0,0 -57.5,-169.02 -125.9,-163.15 -68.4,5.82 -311.5,20.29 -253.2,92.82 17.7,21.99 91.8,49.35 91.8,49.35 l 304.8,280.05" /></g><g
         transform="scale(1.57139)"
         id="g282"><path
           id="path284"
           style="fill:#f09959;fill-opacity:1;fill-rule:nonzero;stroke:none"
           d="m 16168.6,2031.07 c -14,-94.56 -159,-300.56 -221.5,-322.07 -62.4,-21.45 119.9,-68.79 170.7,-45.31 50.8,23.48 182.2,284.97 182.2,284.97 l -131.4,82.41" /></g><g
         transform="scale(1.78112)"
         id="g286"><path
           id="path288"
           style="fill:#f09959;fill-opacity:1;fill-rule:nonzero;stroke:none"
           d="m 15134.9,4316.83 c 0,0 232.2,-1169.6 350.8,-1431.35 89.6,-197.91 662,-1175.94 736.1,-1161.12 74.2,14.82 78.2,38.97 78.2,38.97 0,0 -218.2,778.83 -335.1,939.29 -182.8,251.19 -138.3,316.99 -143.3,786.41 -4.9,469.37 0.3,478.47 -123.4,760.14 -123.6,281.63 -123.6,281.63 -123.6,281.63 l -439.7,-213.97" /></g><g
         transform="scale(1.6889)"
         id="g290"><path
           id="path292"
           style="fill:#f09959;fill-opacity:1;fill-rule:nonzero;stroke:none"
           d="m 15961.3,4654.5 c 0,0 -572.1,-1340.51 -611.7,-1481.2 -39.7,-140.68 -315.8,-1333.94 -315.8,-1333.94 0,0 63.8,-55.3 112.8,-47.25 49,8.11 481.5,828.82 492.9,1094.56 11.4,265.79 535.4,818.1 598,1052.58 62.5,234.47 -276.2,715.25 -276.2,715.25" /></g><g
         transform="scale(1.85357)"
         id="g294"><path
           id="path296"
           style="fill:#f37168;fill-opacity:1;fill-rule:nonzero;stroke:none"
           d="m 15571.2,3674.75 c 0,0 73.6,-612.44 68.8,-790.48 -4.7,-178.03 0.2,-199.4 0.2,-199.4 l 659.8,102.08 c 0,0 -87.8,328.77 -121.1,413.63 -33.2,84.86 -607.7,474.17 -607.7,474.17" /></g><g
         transform="scale(1.85357)"
         id="g298"><path
           id="path300"
           style="fill:#ffffff;fill-opacity:1;fill-rule:nonzero;stroke:none"
           d="m 15590.2,3652.19 c 0,0 36.2,-274.17 72.7,-563.77 36.5,-289.61 38.8,-360.82 38.8,-360.82 l 598.3,81.25 -709.8,843.34" /></g><g
         transform="scale(1.86329)"
         id="g302"><path
           id="path304"
           style="fill:#f37168;fill-opacity:1;fill-rule:nonzero;stroke:none"
           d="m 15815.9,3675.65 c -30.7,-8.26 -349.5,0 -349.5,0 0,0 134.6,-440.4 214.9,-917.41 342.4,35.96 618.7,47.23 618.7,47.23 0,0 -148.2,481.73 -224.1,647.03 -75.8,165.3 -108.9,223.15 -108.9,223.15 h -151.1" /></g><g
         transform="scale(1.81659)"
         id="g306"><path
           id="path308"
           style="fill:#f09959;fill-opacity:1;fill-rule:nonzero;stroke:none"
           d="m 16193.4,4009.27 c 0,0 77.5,-133.77 92,-223.38 14.6,-89.62 -4.8,-266.44 -46,-266.44 -41.2,0 -43.6,15.09 -70.3,111.7 -26.6,96.61 -41.1,133.21 -41.1,133.21 h -58.2 v 256.47 l 123.6,-11.56" /></g><g
         transform="scale(1.73623)"
         id="g310"><path
           id="path312"
           style="fill:#394873;fill-opacity:1;fill-rule:nonzero;stroke:none"
           d="m 16005.2,4599.79 c 13.4,-17.4 227.2,-372.59 261,-686.84 33.8,-314.24 27,-844.76 27,-844.76 l -169.4,-33.81 -100.9,689.37 -43.9,-689.37 c 0,0 -189.2,-67.55 -452.8,-16.87 -263.6,50.68 -554.2,229.75 -554.2,229.75 l 513.6,1236.76 519.6,115.77" /></g><g
         transform="scale(1.71721)"
         id="g314"><path
           id="path316"
           style="fill:#f2f2f2;fill-opacity:1;fill-rule:nonzero;stroke:none"
           d="m 15990.3,5780.72 c 0,0 261.4,-85.37 287,-204.11 22.7,-105.23 -65.7,-771.95 -86.1,-922.02 -2.5,-18.87 -14.5,-35.06 -31.8,-43.09 -83.2,-38.44 -333.1,-147.51 -461.2,-134 -138.4,14.62 -314.7,763.74 -297.3,842 25.6,114.78 210.1,395.47 353.6,456.56 143.6,61.05 235.8,4.66 235.8,4.66" /></g><g
         transform="scale(1.68593)"
         id="g318"><path
           id="path320"
           style="fill:#f09959;fill-opacity:1;fill-rule:nonzero;stroke:none"
           d="m 16104.3,6281.41 c 0,0 91.3,-348.39 143.5,-369.25 52.2,-20.88 -143.5,-322.08 -258.4,-313.89 -114.9,8.24 57.4,284.94 57.4,284.94 l -114.7,353.11 172.2,45.09" /></g><g
         transform="scale(1.66968)"
         id="g322"><path
           id="path324"
           style="fill:#e38540;fill-opacity:1;fill-rule:nonzero;stroke:none"
           d="m 16300,6207.02 c -28.4,-111.62 -66.7,-163.68 -114.7,-212.13 l -98.2,302.13 173.9,45.53 c 0,0 13.5,-69.27 39,-135.53" /></g><g
         transform="scale(1.66733)"
         id="g326"><path
           id="path328"
           style="fill:#f09959;fill-opacity:1;fill-rule:nonzero;stroke:none"
           d="m 15895.9,6431.25 c -41.3,-138.88 -32.6,-295.43 47.2,-340.06 82.8,-46.22 257.9,3.22 306.5,154.82 47,146.94 50.4,288.9 -47.2,340.05 -97.6,51.15 -262.4,-6.96 -306.5,-154.81" /></g><g
         transform="scale(1.49786)"
         id="g330"><path
           id="path332"
           style="fill:#ffffff;fill-opacity:1;fill-rule:nonzero;stroke:none"
           d="m 16139.4,7215.88 160.6,459.34 c 0,0 -659.3,527.69 -1019,585.25 -204.7,32.74 -379.5,-19.79 -379.5,-19.79 l -333.7,-631.91 c 0,0 605.7,-69.57 841.1,-261.92 235.3,-192.36 483.1,-420.77 483.1,-420.77 0,0 141,60.61 247.4,289.8" /></g><g
         transform="scale(1.49967)"
         id="g334"><path
           id="path336"
           style="fill:#f09959;fill-opacity:1;fill-rule:nonzero;stroke:none"
           d="m 16300,7097.55 c 0,0 -132.9,134.67 -164.4,190.71 -31.4,56.04 -102.7,143.77 -76.3,61.62 26.5,-82.16 32.3,-96.83 26.5,-161.37 -5.9,-64.56 -52.9,-90.96 -52.9,-90.96 l 217.2,-114.44 49.9,114.44" /></g><g
         transform="scale(1.6565)"
         id="g338"><path
           id="path340"
           style="fill:#394873;fill-opacity:1;fill-rule:nonzero;stroke:none"
           d="m 16300,5987.73 c 0,0 -855.3,42.93 -935,79.68 -79.7,36.74 -637.5,403.22 -637.5,403.22 0,0 -90.3,-119.61 -95.7,-123.51 -5.3,-3.9 579.2,-466.12 696,-524.55 116.9,-58.44 664.1,-188.95 664.1,-188.95 0,0 -101,-535.71 -143.5,-662.12 -42.5,-126.41 -74.3,-168.01 -74.3,-168.01 0,0 159.3,-34.11 228.4,27.65 69.1,61.76 85,531.36 85,725.81 0,194.44 212.5,430.78 212.5,430.78" /></g><g
         transform="scale(1.80794)"
         id="g342"><path
           id="path344"
           style="fill:#394873;fill-opacity:1;fill-rule:nonzero;stroke:none"
           d="m 15355.7,5441.92 c 0,0 172.8,-56.3 345.6,-221.63 172.8,-165.32 423.5,-390.72 472.1,-521.14 48.7,-130.43 126.6,-697.26 126.6,-697.26 0,0 -136.3,-46.18 -155.8,-25.77 -19.4,20.41 -153.3,516.72 -221.4,601.84 -68.2,85.07 -438.5,430.77 -438.5,430.77 l 131.8,-503.72 c 0,0 -183.4,-120.03 -308.3,-58.86 -124.9,61.23 -179.2,222.58 -261.6,419.38 -82.4,196.74 141.6,625.07 141.6,625.07 l 167.9,-48.68" /></g><g
         transform="scale(1.68458)"
         id="g346"><path
           id="path348"
           style="fill:#f2f2f2;fill-opacity:1;fill-rule:nonzero;stroke:none"
           d="m 16232.1,5984.99 c 8.7,-10.45 67.9,-92.32 67.9,-92.32 0,0 -118.3,-245.81 -171.5,-290.1 -53.1,-44.22 -121.1,-26.77 -121.1,-26.77 0,0 -146.7,60.73 -116.9,115.88 58.8,108.93 137.8,196.25 137.8,196.25 l 18.2,40.48 13.1,-40.48 c 0,0 -24.3,-35.26 -43.5,-85.78 -19.1,-50.52 -15.6,-177.61 -24.4,-193.28 -8.6,-15.68 24.4,-3.51 45.3,59.18 20.9,62.69 26.1,154.99 26.1,154.99 0,0 92.4,52.24 123.7,90.53 31.3,38.34 45.3,71.42 45.3,71.42" /></g><g
         transform="scale(1.38941)"
         id="g350"><path
           id="path352"
           style="fill:#3e6bab;fill-opacity:1;fill-rule:nonzero;stroke:none"
           d="m 16042.5,8383.03 c -3.2,0 -6.4,0.84 -9.3,2.6 -8.5,5.14 -11.2,16.2 -6.1,24.7 l 237,392.34 c 5.2,8.5 16.2,11.23 24.7,6.1 8.5,-5.14 11.2,-16.2 6.1,-24.71 l -237,-392.34 c -3.4,-5.59 -9.4,-8.69 -15.4,-8.69" /></g><g
         transform="scale(1.43026)"
         id="g354"><path
           id="path356"
           style="fill:#3e6bab;fill-opacity:1;fill-rule:nonzero;stroke:none"
           d="m 16067.3,8064.81 c -3.2,0 -6.6,0.92 -9.5,2.85 -8.1,5.29 -10.3,16.11 -5,24.2 l 212.7,325.12 c 5.2,8.07 16,10.33 24.2,5.05 8,-5.28 10.3,-16.11 5,-24.2 L 16082,8072.71 c -3.4,-5.11 -9,-7.9 -14.7,-7.9" /></g><g
         transform="scale(1.45209)"
         id="g358"><path
           id="path360"
           style="fill:#3e6bab;fill-opacity:1;fill-rule:nonzero;stroke:none"
           d="m 16118.5,7820.99 c -1.6,0 -3.3,0.23 -4.9,0.72 -9.1,2.71 -14.3,12.3 -11.6,21.41 0.8,2.55 2.4,7.84 163.6,278.26 4.9,8.16 15.4,10.84 23.6,5.97 8.1,-4.87 10.8,-15.43 5.9,-23.61 -61.3,-102.9 -154.2,-259.42 -160.7,-272.23 -2.7,-6.45 -9,-10.52 -15.9,-10.52" /></g><g
         transform="scale(1.40101)"
         id="g362"><path
           id="path364"
           style="fill:#3e6bab;fill-opacity:1;fill-rule:nonzero;stroke:none"
           d="m 16049.7,8295.92 c -3.1,0 -6.2,0.77 -9,2.42 -8.5,4.97 -11.4,15.9 -6.4,24.41 l 229.9,394.06 c 5,8.52 16,11.37 24.5,6.42 8.4,-4.97 11.3,-15.9 6.4,-24.41 l -230,-394.05 c -3.3,-5.69 -9.3,-8.85 -15.4,-8.85" /></g><g
         transform="scale(1.42261)"
         id="g366"><path
           id="path368"
           style="fill:#3e6bab;fill-opacity:1;fill-rule:nonzero;stroke:none"
           d="m 16074.1,8142.52 c -3.2,0 -6.3,0.85 -9.2,2.64 -8.3,5.11 -10.9,15.95 -5.7,24.2 7.7,12.49 189.8,306.29 206.7,329.3 5.8,7.83 16.7,9.53 24.6,3.76 7.8,-5.74 9.5,-16.73 3.7,-24.56 -12.8,-17.53 -139.8,-221.58 -205.2,-327.02 -3.3,-5.37 -9,-8.32 -14.9,-8.32" /></g><g
         transform="scale(1.42933)"
         id="g370"><path
           id="path372"
           style="fill:#d54a41;fill-opacity:1;fill-rule:nonzero;stroke:none"
           d="m 16151.8,7752.74 c -10,0 -18.9,7.19 -20.6,17.41 -2,11.43 5.6,22.28 17.1,24.26 l 98.9,17.08 -92.4,189.55 c -5.1,10.42 -0.7,22.99 9.7,28.06 10.4,5.07 22.9,0.74 28,-9.68 l 104.6,-214.67 c 2.9,-5.93 2.8,-12.88 -0.2,-18.75 -3,-5.88 -8.6,-10 -15.1,-11.12 l -126.4,-21.84 c -1.2,-0.21 -2.4,-0.3 -3.6,-0.3" /></g><g
         transform="scale(1.44626)"
         id="g374"><path
           id="path376"
           style="fill:#3e6bab;fill-opacity:1;fill-rule:nonzero;stroke:none"
           d="m 16123.1,7899.12 c -3.1,0 -6.2,0.81 -9,2.51 -8.1,4.94 -10.7,15.58 -5.8,23.74 l 157.2,259.37 c 4.9,8.16 15.6,10.78 23.7,5.81 8.2,-4.94 10.8,-15.57 5.8,-23.73 l -157.1,-259.37 c -3.3,-5.36 -9,-8.33 -14.8,-8.33" /></g><g
         transform="scale(1.47256)"
         id="g378"><path
           id="path380"
           style="fill:#3e6bab;fill-opacity:1;fill-rule:nonzero;stroke:none"
           d="m 16108.2,7494.03 c -2.9,0 -5.8,0.73 -8.5,2.28 -8.1,4.69 -10.9,15.08 -6.1,23.19 l 172.3,298.47 c 4.7,8.11 15.1,10.9 23.2,6.21 8.1,-4.68 10.9,-15.08 6.2,-23.19 L 16123,7502.52 c -3.2,-5.44 -8.9,-8.49 -14.8,-8.49" /></g><g
         transform="scale(1.48093)"
         id="g382"><path
           id="path384"
           style="fill:#3e6bab;fill-opacity:1;fill-rule:nonzero;stroke:none"
           d="m 16134.9,7418.43 c -2.8,0 -5.7,0.7 -8.3,2.18 -8.1,4.58 -11,14.88 -6.4,23 l 145.8,258.4 c 4.6,8.13 15,10.98 23,6.4 8.2,-4.58 11,-14.88 6.4,-22.99 l -145.8,-258.4 c -3.1,-5.51 -8.8,-8.59 -14.7,-8.59" /></g><g
         transform="scale(1.68377)"
         id="g386"><path
           id="path388"
           style="fill:#3a384d;fill-opacity:1;fill-rule:nonzero;stroke:none"
           d="m 15717.2,6436.49 c 70.6,-143.74 386,-134.08 383.8,-153.28 -2.2,-19.21 57.9,-297.08 128.4,-295.34 70.6,1.75 -65.8,579.28 -65.8,579.28 l -292.2,-13.07 -154.2,-117.59" /></g><g
         transform="scale(1.71023)"
         id="g390"><path
           id="path392"
           style="fill:#3a384d;fill-opacity:1;fill-rule:nonzero;stroke:none"
           d="m 16042,6366.8 c 116.5,47.31 137.1,29.3 175.7,-32.45 38.6,-61.75 82.3,-86.24 74.6,-142.17 -7.7,-55.94 5.1,-113.68 -18,-169.71 -23.2,-56.04 -102.9,-61.18 -169.8,-94.63 -66.9,-33.45 -98.8,64.44 -98.8,64.44 l 36.3,374.52" /></g><g
         transform="scale(1.67124)"
         id="g394"><path
           id="path396"
           style="fill:#f09959;fill-opacity:1;fill-rule:nonzero;stroke:none"
           d="m 16182,6313.92 c -10.5,-43.33 5,-84.3 34.7,-91.5 29.7,-7.2 62.3,22.1 72.8,65.44 10.5,43.34 -5.1,84.3 -34.7,91.5 -29.7,7.19 -62.3,-22.1 -72.8,-65.44" /></g><path
         id="path398"
         style="fill:#0f2d5c;fill-opacity:1;fill-rule:nonzero;stroke:none"
         d="m 9983.52,2920.6 c 0,0 64.08,-247.5 282.18,-310 218,-62.5 430.6,-183.9 124.3,-187.6 -336.1,-4.1 -528.75,11.7 -668.43,35.2 -139.68,23.4 -48.18,269.6 -25.98,386.9 22.19,117.2 287.93,75.5 287.93,75.5" /><path
         id="path400"
         style="fill:#0f2d5c;fill-opacity:1;fill-rule:nonzero;stroke:none"
         d="m 8206.2,3121.8 c 0,0 -46.7,-494.4 72.17,-536.9 118.88,-42.5 254.74,-144.4 84.91,-144.4 -169.82,0 -379.94,-40.1 -434.9,144.4 -67.03,225 -218.62,263 -164.58,377.5 54.06,114.5 217.39,327.3 217.39,327.3 l 225.01,-167.9" /><path
         id="path402"
         style="fill:#0e3a82;fill-opacity:1;fill-rule:nonzero;stroke:none"
         d="m 10478.5,8278.9 -431.6,-5463.2 c 0,0 -224.17,-103.6 -385.76,-119.2 -161.6,-15.7 -495.82,2618 -467.48,3039.1 28.34,421.1 -292.02,1758.4 -217.82,2191.8 74.2,433.4 1502.66,351.5 1502.66,351.5" /><path
         id="path404"
         style="fill:#0f2d5c;fill-opacity:1;fill-rule:nonzero;stroke:none"
         d="m 9614.95,8250 c 30.43,4 61.1,7.7 91.81,10.9 l 745.54,-288.5 -137.5,-1611.3 c -357.31,-785.3 -784.85,-1526.6 -999.61,-2005.7 -97.83,569.8 -134.72,1184.4 -121.53,1380.2 13.64,202.8 -53.58,618.1 -118.66,1042.6 L 9614.95,8250" /><path
         id="path406"
         style="fill:#0e3a82;fill-opacity:1;fill-rule:nonzero;stroke:none"
         d="M 10265.7,7453.4 C 9847.28,5593.5 8201.5,2997.7 8203.27,2997.7 c 1.77,0 -307.49,53.4 -323.12,194.1 -15.63,140.7 176.51,1871 594.89,2278.2 418.4,407.1 446.96,2340.3 446.96,2340.3 l 1343.7,-356.9" /><path
         id="path408"
         style="fill:#368da8;fill-opacity:1;fill-rule:nonzero;stroke:none"
         d="M 9279.16,10053.4 C 8808.53,9580 8506.67,8766.1 8502.58,8564.7 c -4.09,-201.4 542.65,-560.8 542.65,-560.8 l 233.93,2049.5" /><path
         id="path410"
         style="fill:#f09959;fill-opacity:1;fill-rule:nonzero;stroke:none"
         d="m 9808.66,11097.9 -186.36,-927.4 509.7,-548.7 67.8,1124.5 -391.14,351.6" /><path
         id="path412"
         style="fill:#63acc2;fill-opacity:1;fill-rule:nonzero;stroke:none"
         d="m 9622.3,10459.7 c 0,0 -240.4,-84.3 -507.97,-763.6 -267.58,-679.3 -453.47,-2353.2 -453.47,-2353.2 0,0 514.14,-436.5 1250.19,-436.3 469.05,0.1 705.95,105.5 705.95,105.5 0,0 46.9,1577.7 0,2147.2 -46.9,569.4 -762.47,1314.8 -994.7,1300.4" /><path
         id="path414"
         style="fill:#368da8;fill-opacity:1;fill-rule:nonzero;stroke:none"
         d="m 10617,9159.3 c -46.9,569.4 -762.47,1314.8 -994.7,1300.4 0,0 -99.71,-35 -242.15,-241.3 240.25,116.9 539.65,-87 819.65,-747 140.1,-330.2 288.7,-805.2 437.1,-908.8 -2,236.3 -7.8,449.9 -19.9,596.7" /><path
         id="path416"
         style="fill:#e38540;fill-opacity:1;fill-rule:nonzero;stroke:none"
         d="m 10004.4,10317.4 c -151.44,176.4 -207.63,446 -228.47,617.7 l 29.45,146.5 37.92,-14.8 356.5,-320.5 -34.9,-578.5 c -49.7,35.4 -104,83.8 -160.5,149.6" /><path
         id="path418"
         style="fill:#f09959;fill-opacity:1;fill-rule:nonzero;stroke:none"
         d="m 9925.11,10893.6 c 58.51,-276.1 312.69,-428.6 523.69,-383.8 211,44.7 257.1,312.1 198.6,588.1 -58.5,276 -235.2,421.1 -446.2,376.4 -211,-44.7 -334.6,-304.7 -276.09,-580.7" /><path
         id="path420"
         style="fill:#63acc2;fill-opacity:1;fill-rule:nonzero;stroke:none"
         d="m 9694.33,10669.2 -159.71,-269.8 846.38,-632.8 c 0,0 -63.7,293.3 -80.8,401.2 -17.1,107.9 -592.44,524.1 -605.87,501.4" /><path
         id="path422"
         style="fill:#153f9c;fill-opacity:1;fill-rule:nonzero;stroke:none"
         d="m 10696.7,11661.8 c 355.5,-111.8 64.9,-559.8 -49.3,-563.9 -114.2,-4.1 -155.8,102.3 -249.6,77.8 -93.8,-24.6 -182.4,142.2 -239.7,105.7 -57.3,-36.5 -20.9,-375.2 0,-432.5 20.8,-57.3 -73,-62.5 -73,-62.5 0,0 -38.2,239.7 -97.23,224 -59.06,-15.6 -102.88,-182.3 -187.79,-224 -84.9,-41.7 -84.9,-41.7 -84.9,-41.7 0,0 -52.11,361.7 -130.27,431 -78.16,69.2 -29.17,308.9 81.81,355.8 110.98,46.9 137.76,260.5 291.11,276.2 153.37,15.6 278.37,-88.6 481.67,-62.6 203.2,26.1 157.8,-52.1 257.2,-83.3" /><path
         id="path424"
         style="fill:#f09959;fill-opacity:1;fill-rule:nonzero;stroke:none"
         d="m 9835.42,10951.8 c 29.25,-68.8 94.31,-107.1 145.31,-85.4 50.97,21.7 68.67,95.1 39.37,163.9 -29.23,68.8 -94.28,107 -145.29,85.3 -51,-21.6 -68.64,-95 -39.39,-163.8" /><path
         id="path426"
         style="fill:#368da8;fill-opacity:1;fill-rule:nonzero;stroke:none"
         d="m 9449.32,9955.2 c 0,0 872.18,-970 1186.18,-1270 4.3,-279.4 2.1,-604.8 -2,-894.1 -170.2,83.7 -642.85,328.5 -911.93,588 -332.3,320.4 -480.56,1055.1 -272.25,1576.1" /><path
         id="path428"
         style="fill:#dbe5eb;fill-opacity:1;fill-rule:nonzero;stroke:none"
         d="m 12013.5,8677.8 c 57.5,358.1 707.5,1400.6 952.9,1520.9 135.4,66.3 1357.3,-139.6 1357.3,-139.6 0,0 -1386.2,-1203.2 -1564.2,-1848.1 -159.1,-576.2 -139.6,-794.3 -139.6,-794.3 l -559.9,409.2 c 0,0 -133.2,312.9 -46.5,851.9" /><path
         id="path430"
         style="fill:#f09959;fill-opacity:1;fill-rule:nonzero;stroke:none"
         d="m 11859.6,8685.7 c 0,0 208.6,258.3 291.8,233.4 83.2,-24.8 114.6,-28.8 187.6,-24.8 72.9,4 78.1,-101.5 -26.1,-291 -104.2,-189.6 -385.6,-227.6 -453.3,-224.2 -67.8,3.3 0,306.6 0,306.6" /><path
         id="path432"
         style="fill:#63acc2;fill-opacity:1;fill-rule:nonzero;stroke:none"
         d="m 9546.71,10167.8 c -337.29,-89.7 -227.54,-944.7 -37.48,-1297.7 136.61,-253.8 592.97,-512.5 871.77,-585.1 278.9,-72.5 1488.2,78.3 1488.2,78.3 0,0 44.5,398.6 -39.7,398.6 -84.2,0 -1082.7,23.1 -1351,265.7 -268.3,242.5 -524.47,1248.5 -931.79,1140.2" /><path
         id="path434"
         style="fill:#dbe5eb;fill-opacity:1;fill-rule:nonzero;stroke:none"
         d="m 12060,8692.2 c -89.8,57.8 118.1,389.4 118.1,389.4 h 239.6 c 0,0 -77,-90.8 -190.1,-182.3 -113.1,-91.5 -167.6,-207.1 -167.6,-207.1" /><path
         id="path436"
         style="fill:#3e6bab;fill-opacity:1;fill-rule:nonzero;stroke:none"
         d="m 13724.5,9721.3 c -1.6,0 -3.1,0.1 -4.7,0.4 l -570.5,108.3 c -13.6,2.6 -22.5,15.7 -19.9,29.2 2.5,13.6 15.7,22.5 29.2,19.9 l 570.5,-108.3 c 13.6,-2.5 22.5,-15.6 19.9,-29.2 -2.3,-12 -12.8,-20.3 -24.5,-20.3" /><path
         id="path438"
         style="fill:#3e6bab;fill-opacity:1;fill-rule:nonzero;stroke:none"
         d="m 13439.2,9410.8 c -2.9,0 -5.8,0.5 -8.7,1.6 l -451.1,166 c -12.9,4.8 -19.6,19.1 -14.8,32.1 4.8,13 19.2,19.6 32.1,14.8 l 451.1,-166 c 13,-4.8 19.6,-19.1 14.8,-32.1 -3.7,-10.1 -13.2,-16.4 -23.4,-16.4" /><path
         id="path440"
         style="fill:#3e6bab;fill-opacity:1;fill-rule:nonzero;stroke:none"
         d="m 13356.3,9324.2 c -2.9,0 -5.8,0.5 -8.6,1.5 -137.1,49.9 -402.2,145.9 -424.5,152.5 -13.2,4 -20.8,17.9 -16.8,31.1 3.9,13.3 17.8,20.8 31.1,16.9 29.2,-8.8 411.1,-147.6 427.3,-153.5 13,-4.7 19.7,-19.1 15,-32 -3.7,-10.2 -13.3,-16.5 -23.5,-16.5" /><path
         id="path442"
         style="fill:#3e6bab;fill-opacity:1;fill-rule:nonzero;stroke:none"
         d="m 13031.4,8943.1 c -3.3,0 -6.6,0.6 -9.8,2 -135.8,57.6 -360.5,150.9 -384.9,155.8 -13.6,2.7 -22.4,15.9 -19.7,29.4 2.7,13.5 15.9,22.3 29.5,19.6 36.7,-7.3 335.2,-133.6 394.7,-158.8 12.7,-5.4 18.6,-20 13.2,-32.8 -4,-9.5 -13.3,-15.2 -23,-15.2" /><path
         id="path444"
         style="fill:#3e6bab;fill-opacity:1;fill-rule:nonzero;stroke:none"
         d="m 12988.1,8861.9 c -3.2,0 -6.5,0.6 -9.7,1.9 l -382.6,159.9 c -12.7,5.3 -18.7,19.9 -13.4,32.7 5.3,12.7 19.9,18.7 32.7,13.4 l 382.6,-159.8 c 12.7,-5.4 18.8,-20 13.4,-32.7 -4,-9.6 -13.2,-15.4 -23,-15.4" /><path
         id="path446"
         style="fill:#3e6bab;fill-opacity:1;fill-rule:nonzero;stroke:none"
         d="m 13813.5,9815.1 c -1.5,0 -3.1,0.2 -4.6,0.4 l -599.9,113.2 c -13.6,2.5 -22.5,15.6 -19.9,29.2 2.5,13.5 15.6,22.5 29.2,19.9 l 599.8,-113.1 c 13.6,-2.6 22.5,-15.6 20,-29.2 -2.3,-12 -12.8,-20.4 -24.6,-20.4" /><path
         id="path448"
         style="fill:#3e6bab;fill-opacity:1;fill-rule:nonzero;stroke:none"
         d="m 12754.6,8607.1 c -3.1,0 -6.4,0.6 -9.5,1.9 l -274.3,113.1 c -12.8,5.2 -18.9,19.9 -13.6,32.6 5.3,12.8 19.8,18.8 32.6,13.6 l 274.4,-113.1 c 12.7,-5.3 18.8,-19.9 13.6,-32.7 -4,-9.6 -13.3,-15.4 -23.2,-15.4" /><path
         id="path450"
         style="fill:#3e6bab;fill-opacity:1;fill-rule:nonzero;stroke:none"
         d="m 12701.7,8489.2 c -3.5,0 -7.1,0.7 -10.5,2.3 l -255.1,117.9 c -12.5,5.8 -18,20.6 -12.2,33.2 5.8,12.5 20.7,18 33.2,12.2 l 255.1,-117.9 c 12.5,-5.8 18,-20.7 12.2,-33.2 -4.2,-9.2 -13.3,-14.5 -22.7,-14.5" /><path
         id="path452"
         style="fill:#3e6bab;fill-opacity:1;fill-rule:nonzero;stroke:none"
         d="m 12559.7,8046.4 c -3.4,0 -6.9,0.7 -10.2,2.2 l -348.9,156.4 c -12.6,5.6 -18.3,20.4 -12.6,33 5.6,12.6 20.4,18.2 33,12.6 l 349,-156.4 c 12.5,-5.6 18.2,-20.4 12.5,-33 -4.1,-9.3 -13.2,-14.8 -22.8,-14.8" /><path
         id="path454"
         style="fill:#3e6bab;fill-opacity:1;fill-rule:nonzero;stroke:none"
         d="m 12506.8,7940.5 c -3.4,0 -6.8,0.7 -10.1,2.1 -317.2,140.5 -324,145 -326.3,146.5 -11.4,7.6 -14.5,23.2 -6.9,34.7 7.4,11 22.1,14.3 33.5,7.7 14.3,-7.5 198.7,-89.5 319.9,-143.1 12.6,-5.6 18.3,-20.4 12.7,-33 -4.1,-9.4 -13.2,-14.9 -22.8,-14.9" /><path
         id="path456"
         style="fill:#d54a41;fill-opacity:1;fill-rule:nonzero;stroke:none"
         d="m 12617.5,9521.3 c -6.2,0 -12.4,2 -17.7,5.8 -9,6.6 -13.6,17.6 -12,28.7 l 24.1,161.2 c 2.4,16.4 17.7,27.7 34.1,25.2 16.4,-2.4 27.7,-17.7 25.2,-34.1 l -15.6,-104.3 302.3,150.1 c 14.8,7.3 32.8,1.3 40.2,-13.5 7.4,-14.9 1.3,-32.9 -13.5,-40.3 l -353.8,-175.6 c -4.2,-2.1 -8.8,-3.2 -13.3,-3.2" /></g></g></svg>
