<svg xmlns="http://www.w3.org/2000/svg" width="64" height="64" fill="#000" viewBox="0 0 32 32"><path d="M 15 3 L 15 11 L 16 11 L 20.751953 11 L 22.738281 13.666016 L 24.751953 11 L 30 11 L 30 3 L 15 3 z M 17 5 L 28 5 L 28 9 L 23.757812 9 L 22.75 10.332031 L 21.757812 9 L 17 9 L 17 5 z M 16 13 C 13.249576 13 11 15.249576 11 18 C 11 19.522801 11.704733 20.87402 12.787109 21.792969 C 11.709769 22.355323 10.797507 23.189381 10.136719 24.203125 C 9.7759673 23.67303 9.316304 23.214765 8.7851562 22.855469 C 9.5313213 22.127434 10 21.116372 10 20 C 10 17.802937 8.1970628 16 6 16 C 3.8029372 16 2 17.802937 2 20 C 2 21.116372 2.4686787 22.127434 3.2148438 22.855469 C 1.8820205 23.757061 1 25.282823 1 27 L 3 27 C 3 25.347006 4.3470058 24 6 24 C 7.6529942 24 9 25.347006 9 27 L 9 28 L 11 28 C 11 25.244087 13.244087 23 16 23 C 18.755913 23 21 25.244087 21 28 L 23 28 L 23 27 C 23 25.347006 24.347006 24 26 24 C 27.652994 24 29 25.347006 29 27 L 31 27 C 31 25.282823 30.117979 23.757061 28.785156 22.855469 C 29.531321 22.127434 30 21.116372 30 20 C 30 17.802937 28.197063 16 26 16 C 23.802937 16 22 17.802937 22 20 C 22 21.116372 22.468679 22.127434 23.214844 22.855469 C 22.683696 23.214765 22.224033 23.67303 21.863281 24.203125 C 21.202493 23.189381 20.290231 22.355323 19.212891 21.792969 C 20.295267 20.87402 21 19.522801 21 18 C 21 15.249576 18.750424 13 16 13 z M 16 15 C 17.671576 15 19 16.328424 19 18 C 19 19.671576 17.671576 21 16 21 C 14.328424 21 13 19.671576 13 18 C 13 16.328424 14.328424 15 16 15 z M 6 18 C 7.1149372 18 8 18.885063 8 20 C 8 21.114937 7.1149372 22 6 22 C 4.8850628 22 4 21.114937 4 20 C 4 18.885063 4.8850628 18 6 18 z M 26 18 C 27.114937 18 28 18.885063 28 20 C 28 21.114937 27.114937 22 26 22 C 24.885063 22 24 21.114937 24 20 C 24 18.885063 24.885063 18 26 18 z"/></svg>